<?xml version="1.0" encoding="utf-8"?>
<!-- Generator: Adobe Illustrator 19.0.1, SVG Export Plug-In . SVG Version: 6.00 Build 0)  -->
<svg version="1.1" id="birds" xmlns="http://www.w3.org/2000/svg" xmlns:xlink="http://www.w3.org/1999/xlink" x="0px" y="0px"
	 viewBox="0 0 328 134" style="enable-background:new 0 0 328 134;" xml:space="preserve">
<style type="text/css">
	.st0{opacity:0.5;}
	.st1{fill:#5E7C76;}
</style>
<g id="birds_1_" class="st0">
	<path class="st1" d="M138.9,71.6c0,0.4-0.4,1.1,0.3,1.3c0.7,0.2,1.6,0.1,2-0.8c0.8-1.9,2.3-3.3,2.7-5.4c0.4-2,2-2.7,3.8-3
		c1.2-0.2,2.5-0.3,3.7-0.6c0.5-0.1,1.2,0,1.3-0.7c0.1-0.6-0.3-1-0.6-1.4c-1.9-1.9-4.2-2-6.2-0.1c-1.3,1.2-2.2,2.6-3.6,3.7
		c-2,1.4-4.2,1.8-6.4,0.9c-3.1-1.2-5.6,0.2-7.9,2.1c-1.3,1-2.6,2.2-3.5,3.5c-0.2,0.3-0.5,0.6-0.2,1c0.3,0.4,0.7,0.1,1-0.1
		c2.3-0.9,4.5-1.9,6.8-2.8c1.3-0.5,2.7-0.8,3.9,0.2c0.3,0.3,0.7,0.3,1.2,0.2C138.7,69.4,139.1,69.8,138.9,71.6z"/>
	<path class="st1" d="M57.1,64.8c0,0.4,0.4,1.1-0.3,1.3c-0.7,0.2-1.6,0-1.9-0.7c-0.7-1.8-2.3-3.2-2.6-5.3c-0.4-2.1-2-3-4-3.3
		c-1.3-0.2-2.6-0.4-3.9-0.6c-1.4-0.2-1.3-1-0.7-1.9c1.6-2.2,4.4-2.3,6.4-0.4c1.3,1.2,2.2,2.6,3.6,3.7c2.1,1.4,4.2,1.8,6.4,0.9
		c2.9-1.1,5.2,0.1,7.4,1.6c1.4,1,2.5,2.4,3.7,3.6c0.4,0.4,0.9,0.9,0.5,1.4c-0.4,0.5-0.9-0.1-1.3-0.2c-2.2-0.9-4.3-1.8-6.5-2.6
		c-1.3-0.5-2.7-0.8-3.9,0.3c-0.3,0.3-0.7,0.2-1.2,0.2C57.2,62.6,56.9,63,57.1,64.8z"/>
	<path class="st1" d="M22.4,103.4c1.4,0.4,2.6,1.1,4.2,1c0.8-0.1,1,1,0.8,1.9c-0.1,0.5-0.6,1.3,0.4,1.5c0.7,0.1,1.5,0,1.9-0.8
		c0.7-1.8,2.2-3.2,2.6-5.3c0.4-2.1,2.1-2.9,4-3.3c1.3-0.2,2.6-0.4,3.9-0.6c1.3-0.2,1.2-0.9,0.6-1.8c-1.4-2-4.1-2.4-6-0.8
		c-0.8,0.7-1.6,1.4-2.3,2.3c-2.1,2.6-4.7,3.9-8,2.8c-3.5-1.2-6.2,0.3-8.6,2.5c-1.1,1-2.3,1.9-3.1,3.2c-0.1,0.2-0.3,0.6-0.2,0.8
		c0.2,0.4,0.6,0.2,0.9,0c2.2-0.9,4.4-1.9,6.6-2.7C20.8,103.7,21.6,103.6,22.4,103.4z"/>
	<path class="st1" d="M300.6,85.9c0,0.4,0.4,1.1-0.3,1.3c-0.7,0.2-1.6,0.1-2-0.8c-0.8-1.9-2.3-3.3-2.7-5.4c-0.4-2-2-2.7-3.8-3
		c-1.2-0.2-2.5-0.3-3.7-0.6c-0.5-0.1-1.2,0-1.3-0.7c-0.1-0.6,0.3-1,0.7-1.4c1.9-1.9,4.2-1.9,6.2-0.1c1.3,1.2,2.2,2.6,3.6,3.7
		c2,1.4,4.2,1.8,6.4,0.9c3.1-1.2,5.6,0.2,7.9,2.1c1.3,1,2.6,2.2,3.5,3.5c0.2,0.3,0.5,0.6,0.2,1c-0.3,0.4-0.7,0-1-0.1
		c-2.3-0.9-4.5-1.9-6.8-2.8c-1.3-0.5-2.7-0.8-3.9,0.2c-0.3,0.3-0.7,0.3-1.2,0.2C300.8,83.7,300.4,84.1,300.6,85.9z"/>
	<path class="st1" d="M235.7,19.3c-2.6,0.1-3.7,2-5.2,3.5c-1.9,2-4,3.7-6.8,2.7c-5.8-2-9.1,1.6-12.4,5.2c-0.3,0.3-0.8,0.8-0.4,1.2
		c0.3,0.4,0.8-0.1,1.1-0.2c2.2-0.9,4.3-1.8,6.5-2.7c1.4-0.5,2.8-0.9,4.1,0.2c0.3,0.2,0.6,0.2,1,0.2c2-0.1,2.2,0.1,2,2
		c0,0.5-0.4,1.2,0.3,1.4c0.7,0.1,1.6,0,1.9-0.7c0.7-1.8,2.3-3.2,2.6-5.3c0.4-2.1,2-3,4-3.3c1.3-0.2,2.6-0.4,3.9-0.6
		c1.2-0.2,1.4-0.9,0.7-1.7C238.2,20.1,237.1,19.3,235.7,19.3z"/>
	<path class="st1" d="M246.5,111.2c1.2-0.1,1.9,0.4,1.7,1.9c-0.1,0.6-0.6,1.4,0.4,1.6c0.7,0.1,1.5-0.1,1.9-1
		c0.8-1.9,2.2-3.4,2.6-5.5c0.4-1.9,2-2.5,3.8-2.9c1.3-0.2,2.6-0.4,3.9-0.6c1.3-0.2,1.4-0.9,0.7-1.8c-1.5-2-4.1-2.4-6-0.8
		c-0.8,0.7-1.6,1.4-2.3,2.3c-2.2,2.7-4.8,3.8-8.2,2.7c-3.2-1.1-5.7,0.3-8,2.2c-1.2,1-2.5,2.1-3.4,3.4c-0.2,0.3-0.5,0.6-0.2,1
		c0.3,0.4,0.6,0.1,1-0.1c2.2-0.8,4.2-2,6.5-2.7c1.5-0.5,3-1,4.4,0.2C245.5,111.5,246,111.4,246.5,111.2z"/>
	<path class="st1" d="M38.8,25.4c2.6,0.4,5.3,0.6,7.8,1.8c0.4,0.2,0.7,0.4,1.2,0.4c1.2-0.1,1.3,0.7,1.4,1.6c0.1,0.5-0.7,1.3,0.4,1.4
		c1,0.2,2.5,0.5,2.9-0.6c1.6-4.5,5.7-5.4,9.4-6.9c2.4-1,4.9-1.8,7.4-2.7c0.3-0.1,0.6-0.2,0.5-0.6c-0.1-0.4-0.5-0.5-0.9-0.4
		c-4.7,0.7-9.5,1-13.7,3.9c-2.3,1.6-5.4,1.5-8.1,0.6c-2.8-0.9-5.4-1.4-8.4-0.6c-1.9,0.5-3.9,0.8-6,0.6c-0.4,0-1.1-0.1-1.1,0.6
		c0,0.6,0.6,0.5,1,0.4C34.8,24.5,36.8,25.5,38.8,25.4z"/>
	<path class="st1" d="M98.8,39.1c2.7,0.4,5.5,0.6,8,1.8c0.3,0.1,0.7,0.4,1,0.3c1.3-0.1,1.5,0.7,1.6,1.7c0,0.5-0.6,1.3,0.4,1.4
		c1.1,0.1,2.5,0.5,2.9-0.7c1.5-4.4,5.5-5.3,9-6.8c2.5-1.1,5.1-1.9,7.7-2.8c0.3-0.1,0.6-0.2,0.5-0.6c-0.1-0.3-0.5-0.4-0.7-0.4
		c-4.3,0.8-8.8,0.5-12.6,3.3c-2.9,2.1-6.2,2.2-9.5,1.1c-2.7-0.9-5.2-1.3-8-0.6c-1.9,0.5-4,0.8-6,0.6c-0.4,0-1.2-0.1-1.2,0.5
		c0,0.8,0.8,0.6,1.2,0.5C95,38.3,96.8,39.2,98.8,39.1z"/>
	<path class="st1" d="M232.5,60.9c-2.7,0.4-5.4,0.7-8,1.8c-0.3,0.1-0.7,0.3-1,0.3c-1.3-0.1-1.5,0.7-1.5,1.7c0,0.5,0.6,1.3-0.5,1.4
		c-1.1,0.1-2.5,0.5-2.9-0.7c-1.4-4.2-5.2-5.1-8.6-6.6c-2.6-1.2-5.4-2-8.1-2.9c-0.3-0.1-0.7-0.2-0.6-0.5c0-0.4,0.5-0.6,0.8-0.5
		c4.3,0.8,8.8,0.6,12.6,3.3c2.9,2.1,6.2,2.1,9.6,1.1c0.9-0.3,1.8-0.5,2.7-0.8c1.1-0.4,2.1-0.3,3.3-0.1c2.5,0.6,5.1,0.8,7.8,0.9
		c0.5,0,1.3-0.2,1.3,0.5c0,0.8-0.8,0.5-1.3,0.5C236.3,60,234.5,60.9,232.5,60.9z"/>
	<path class="st1" d="M299.1,49.4c-4.6,1.3-8.7-0.6-13-1c-5-0.4-9.5-2.6-14.3-3.8c-2-0.5-3.9-1.6-5.4-3.1c-0.4-0.4-1.1-1-1.5-0.5
		c-0.5,0.6,0.3,1,0.7,1.4c2.5,2.5,5.8,3.5,9,4.5c2.2,0.7,4.2,1.5,5.8,3.5c1.1,1.5,3,2.5,5.2,2.4c0.7,0,1.8,0,1.2-1.3
		c-0.1-0.3,0-0.7,0.3-0.6c1.4,0.5,2.8-0.7,4.4,0.1C293.5,52,297.5,51.1,299.1,49.4z"/>
	<path class="st1" d="M81.8,97.1c4.6,1,8.9-0.9,13.4-1.4c5.6-0.6,10.8-2.8,16.1-4.6c1.3-0.5,2.4-1.3,3.3-2.4
		c0.3-0.3,0.9-0.7,1.3-0.3c0.5,0.4-0.1,0.8-0.4,1.2c-1.4,1.4-3.1,2.3-4.9,3.2c-2.7,1.3-5.7,1.6-8.3,3.2c-0.6,0.4-1,0.8-1.4,1.4
		c-1.3,1.7-3,2.7-5.1,2.9c-0.8,0.1-2.3,0.5-1.7-1.4c0.1-0.3-0.1-0.6-0.3-0.5c-1.4,0.5-2.8-0.5-4.4,0.1
		C86.7,99.3,84.1,98.8,81.8,97.1z"/>
	<path class="st1" d="M212.7,91.8c-4.3,1.1-8.3-0.8-12.4-1.2c-4.7-0.5-9.1-2.3-13.6-3.5c-2.5-0.7-4.7-1.7-6.6-3.5
		c-0.4-0.4-1-1-1.5-0.4c-0.4,0.5,0.3,0.9,0.7,1.3c2.2,2.5,5.4,3.3,8.3,4.3c2.5,0.9,4.9,1.6,6.7,3.9c1,1.3,2.8,2.3,4.7,2.2
		c0.8-0.1,2.1,0.2,1.5-1.4c-0.1-0.3,0.1-0.6,0.3-0.5c1.4,0.4,2.7-0.5,4.2,0C207.7,94,210.3,93.5,212.7,91.8z"/>
</g>
</svg>
