<?xml version="1.0" encoding="utf-8"?>
<!-- Generator: Adobe Illustrator 19.0.1, SVG Export Plug-In . SVG Version: 6.00 Build 0)  -->
<svg version="1.1" id="boat" xmlns="http://www.w3.org/2000/svg" xmlns:xlink="http://www.w3.org/1999/xlink" x="0px" y="0px"
	 viewBox="0 0 381 250.5" style="enable-background:new 0 0 381 250.5;" xml:space="preserve">
<style type="text/css">
	.st0{opacity:0.5;}
	.st1{fill:#5E7C76;}
</style>
<g class="st0">
	<path class="st1" d="M38,224.4c2.5-6.2,7.4-6.1,11.6-6.4c3.1-0.2,4.7-1.2,6-3.9c3.3-6.7,6.8-13.3,10.3-20c0.8-1.6,1.5-3.3,3.9-3.2
		c1.5,0,4.1,2,4.6-0.8c0.4-2.8,1.7-6.4-0.8-8.5c-3.3-2.7-1.1-2.8,0.9-3.3c3.4-0.8,8.3,0.4,9.8-2.2c1.6-2.8-3.3-5.1-4.5-8.2
		c-1.9-4.6-1.5-7.3,2.7-12.2c2.8,1.1,0.7,6.4,5.3,6c2.7-0.2,5.5,0,9.5,0c-3,3.8-5.1,6.7-7.5,9.4c-1.7,2-2.2,4.3-1.4,6.5
		c0.8,2.2,3.2,0.9,4.9,1.1c2,0.3,4.2-0.1,5.8,1.1c3.5,2.7,6.3,1.2,9.4-0.7c14.4-9.1,14.4-9.1,15.3-25.9c0.3-4.8,0.6-9.7,1.4-14.4
		c0.6-3.5-0.1-4.8-3.8-4.7c-2.1,0.1-6.2,1.6-6.1-1.6c0-3.2,4-1.4,6.2-1.6c2.6-0.3,5,0.1,7.1-2.5c1.9-2.3,5.1-3.5,8.1-3.3
		c4.2,0.2,4-1.7,3.1-4.7c-1.6-4.9-1-9.7,2.3-13.7c1.9-2.3,0.9-4.3,0.7-6.6c-0.1-1.6-1.8-3.5,0.6-4.7c1.1,0.3,1.1,1.2,1.2,2
		c1.7,7.1,1.7,7.2,9.2,7.3c6,0.1,12,0,18,0c2.5,0,5-0.4,7.9,1.2c-3.5-28.5-7.1-57.1-10.7-85.8c2.3,0.3,2.1,1.7,2.2,2.8
		c3.5,20,5.5,40.2,8,60.3c1.3,10.7,2,21.5,4,32.2c0.7,4,2.4,5.8,6.7,5.1c3.3-0.6,6.6-0.7,10-0.6c3.3,0.1,3.5-1.3,2.7-3.9
		c-1.6-4.9-3.2-9.8-4.5-14.8c-0.7-2.8-2.1-4.2-4.9-4.7c-3.8-0.6-7.4-1.7-10.8-3.5c0.2-0.4,0.3-0.9,0.5-0.9c3.2-0.8,7.5,1.2,9.6-1
		c1.7-1.8,1.1-5.9,1.4-9c0.1-1.3,0.5-2.2,2-2.2c1.3,0,2.1,0.2,2.4,1.8c1.5,6.7,4.7,11.4,12.6,10.5c1.6-0.2,3.2,0.5,5.5,0.8
		c-2.4,2.1-4.9,2.2-7.1,2.8c-3.3,0.8-3.8,2.5-1.8,4.9c2,2.5,1.7,7,6.4,7.2c0.2-0.6,0.4-0.9,0.3-1.2c-3.4-8.1-3.1-8.6,5.5-9
		c13.3-0.6,13.4-0.6,13.7,13.5c0,1.8,1.4,5.1-2.1,4.9c-3.2-0.1-8.1,2.4-9.1-3.1c-0.7-4-2.2-2.3-3.8-1.1c-1.7,1.4-1.8,3.3-1,5.4
		c0.9,2.2,2.2,2.3,4.3,2.1c11.4-0.9,22.8-2.8,34.2,0.3c1.8,0.5,3.5,1,4.9,2.3c1,0.9,1.6,2.1,0,2.7c-3.5,1.3-2,3-0.6,4.8
		c0.5,0.7,1.1,1.3,1.4,2.1c3.6,10.7,11.5,10.8,21.2,10.1c18.1-1.4,35.9-5.6,54.1-5c5.7,0.2,5.7,0,4.1,5.3c-0.6,2.1-1.2,4.2-2,6.2
		c-1,2.5-1.4,4.3,2.1,5c1.7,0.3,2.5,2.2,2.1,4.1c-0.3,1.8-1.9,2.6-3.3,2.5c-4.6-0.4-5.8,2.8-7.3,6c-6.1,13.1-12.2,26.3-19.4,38.8
		c-6.8,11.7-18.1,18.4-29.3,25c-1.2,0.7-2.9,0.5-4.4,0.5c-45.1,0.4-90.3,0.1-135.4-2.2c-11.6-0.6-23.2-1.9-34.9-2.5
		c-4.3-0.2-8.6,0.5-12.9,0.9c-15.8,1.2-31.5,2.2-47.2-1.9C45.7,223.6,42.1,224.4,38,224.4z M271,145.4c2.5,2.4,3.6,5.3,6.4,5
		c11.4-1.1,22.8-2.4,34.2-2.8c3.1-0.1,2.9-2.9,3-4.8c0.1-2.7-2.1-1.3-3.3-1.3c-3.5,0.1-7,0.3-10.4,0.6
		C291.3,143.3,281.5,143.4,271,145.4z M275.6,153.2c1.5,0.9,1.9,1.4,2.3,1.4c10.4,0.1,20.9,0,31.3,0.1c2.6,0,2.4-1.6,2.4-3.3
		c0-2.3-1.5-2.1-3.1-1.9c-3.6,0.3-7.3,0.4-10.9,0.9C290.7,151.3,283.6,151.1,275.6,153.2z M315.9,158.1c5-0.5,9.2-5.7,8.9-10.3
		c-0.1-1.5-0.9-1.4-1.9-1.6c-5.9-1-6.7-0.4-9.7,7.4C312,156.8,310.6,159.9,315.9,158.1z M326.2,155.9c5.8-2,9.2-5.9,11.6-10.7
		c0.4-0.8,1.3-1.8,0.2-2.6c-0.5-0.4-1.6-0.3-2.4-0.1C329.2,143.5,327.6,145.6,326.2,155.9z M77.5,186.6c0.1,0.3-1.5,3,1.8,2.9
		c2.7-0.1,5.3-0.5,8-0.8c1-0.1,1.7-0.6,1.4-1.6c-0.9-3-1.7-6.2-6-5.9C79.8,181.4,76,180.3,77.5,186.6z"/>
</g>
</svg>
