<?xml version="1.0" encoding="utf-8"?>
<!-- Generator: Adobe Illustrator 19.0.1, SVG Export Plug-In . SVG Version: 6.00 Build 0)  -->
<svg version="1.1" id="divider_1_" xmlns="http://www.w3.org/2000/svg" xmlns:xlink="http://www.w3.org/1999/xlink" x="0px" y="0px"
	 viewBox="1260 284.7 3132.3 225.3" style="enable-background:new 1260 284.7 3132.3 225.3;" xml:space="preserve">
<style type="text/css">
	.st0{fill:#05668D;}
</style>
<g id="divider">
	<g>
		<g>
			<path class="st0" d="M2855.7,453c-18.4,9.8-40.6,9.8-59,0l-28,28c34.5,23.8,80.5,23.8,115,0L2855.7,453z"/>
			<path class="st0" d="M2881.8,367.8c9.8,18.4,9.8,40.6,0,59l28,28c23.8-34.5,23.8-80.5,0-115L2881.8,367.8z"/>
		</g>
		<g>
			<path class="st0" d="M2742.5,339.8c-23.8,34.5-23.8,80.5,0,115l28-28c-9.8-18.4-9.8-40.6,0-59L2742.5,339.8z"/>
			<path class="st0" d="M2768.7,313.7l28,28c18.4-9.8,40.6-9.8,59,0l28-28C2849.1,289.9,2803.2,289.9,2768.7,313.7z"/>
		</g>
	</g>
</g>
<g id="Layer_2">
</g>
<g id="Layer_3">
	<g>
		<polygon class="st0" points="1804.9,364.3 1694.7,364.3 1740.9,430.3 1851.1,430.3 		"/>
		<polygon class="st0" points="1968.9,364.3 1858.6,364.3 1904.8,430.3 2015.1,430.3 		"/>
		<polygon class="st0" points="1412.9,430.3 1523.2,430.3 1477,364.3 1366.7,364.3 		"/>
		<polygon class="st0" points="1641,364.3 1530.7,364.3 1576.9,430.3 1687.2,430.3 		"/>
		<polygon class="st0" points="2460.8,364.3 2350.5,364.3 2396.7,430.3 2507,430.3 		"/>
		<polygon class="st0" points="1313,364.3 1260,364.3 1260,430.3 1359.2,430.3 		"/>
		<polygon class="st0" points="2514.5,364.3 2560.7,430.3 2631.1,430.3 2631.1,364.3 		"/>
		<polygon class="st0" points="2132.9,364.3 2022.6,364.3 2068.8,430.3 2179,430.3 		"/>
		<polygon class="st0" points="2296.8,364.3 2186.6,364.3 2232.7,430.3 2343,430.3 		"/>
	</g>
	<g>
		<polygon class="st0" points="3799.1,364.3 3688.9,364.3 3642.7,430.3 3752.9,430.3 		"/>
		<polygon class="st0" points="3635.2,364.3 3524.9,364.3 3478.7,430.3 3589,430.3 		"/>
		<polygon class="st0" points="3150.8,430.3 3261,430.3 3307.2,364.3 3197,364.3 		"/>
		<polygon class="st0" points="3471.2,364.3 3360.9,364.3 3314.8,430.3 3425,430.3 		"/>
		<polygon class="st0" points="3963.1,364.3 3852.8,364.3 3806.6,430.3 3916.9,430.3 		"/>
		<polygon class="st0" points="3143.3,364.3 3021.2,364.3 3021.2,430.3 3097.1,430.3 		"/>
		<polygon class="st0" points="4344.7,364.3 4298.5,430.3 4392.3,430.3 4392.3,364.3 		"/>
		<polygon class="st0" points="4127,364.3 4016.8,364.3 3970.6,430.3 4080.9,430.3 		"/>
		<polygon class="st0" points="4291,364.3 4180.7,364.3 4134.6,430.3 4244.8,430.3 		"/>
	</g>
</g>
</svg>
