<?xml version="1.0" encoding="utf-8"?>
<!-- Generator: Adobe Illustrator 19.0.1, SVG Export Plug-In . SVG Version: 6.00 Build 0)  -->
<svg version="1.1" id="footprints" xmlns="http://www.w3.org/2000/svg" xmlns:xlink="http://www.w3.org/1999/xlink" x="0px" y="0px"
	 viewBox="26 284 664 226" style="enable-background:new 26 284 664 226;" xml:space="preserve">
<style type="text/css">
	.st0{opacity:0.5;}
	.st1{fill:#05668D;}
</style>
<g class="st0">
	<path class="st1" d="M653.9,362.5c-9.3,2.3-17.4,1.3-25-3.3c-2.6-1.6-5.4-2-8.4-2.2c-5.1-0.3-9.3-2.1-11.8-6.9
		c-1.5-2.9-0.5-6.5,2.2-8.4c3.8-2.7,8-3.1,12.1-1.3c5.2,2.2,10,1.7,15.1-0.4c7.9-3.3,16.1-3.1,23.8,0.1c5.2,2.2,8.8,6.7,6.2,12.9
		c-1.4,3.3-4.3,5.3-7.4,6.9C658.4,361.2,655.9,362.2,653.9,362.5z"/>
	<path class="st1" d="M580.5,337.3c-1.9,0.5-3.9,1-5.9,1c-4.4,0.1-7.9,2.1-10.7,5.5c-2.5,3-5.7,4.9-9.7,5.2c-5.5,0.4-9-3.6-7.9-9
		c0.8-3.9,3.2-6.9,6.6-8.8c3.6-2,6.6-4.7,8.7-8.3c2.9-4.9,7.5-7.9,12.6-10.1c6-2.7,12.3-3.7,18.8-2.1c7.7,1.9,10.1,9.1,5.5,15.5
		c-3.9,5.3-9.3,8.4-15.4,10.5C582.3,336.9,581.4,337,580.5,337.3z"/>
	<path class="st1" d="M529.2,392.6c-9.3,2.3-17.4,1.3-25-3.3c-2.6-1.6-5.4-2-8.4-2.2c-5.1-0.3-9.3-2.1-11.8-6.9
		c-1.5-2.9-0.5-6.5,2.2-8.4c3.8-2.7,8-3.1,12.1-1.3c5.2,2.2,10,1.7,15.1-0.4c7.9-3.3,16.1-3.1,23.8,0.1c5.2,2.2,8.8,6.7,6.2,12.9
		c-1.4,3.3-4.3,5.3-7.4,6.9C533.6,391.3,531.1,392.3,529.2,392.6z"/>
	<path class="st1" d="M455.7,367.4c-1.9,0.5-3.9,1-5.9,1c-4.4,0.1-7.9,2.1-10.7,5.5c-2.5,3-5.7,4.9-9.7,5.2c-5.5,0.4-9-3.6-7.9-9
		c0.8-3.9,3.2-6.9,6.6-8.8c3.6-2,6.6-4.7,8.7-8.3c2.9-4.9,7.5-7.9,12.6-10.1c6-2.7,12.3-3.7,18.8-2.1c7.7,1.9,10.1,9.1,5.5,15.5
		c-3.9,5.3-9.3,8.4-15.4,10.5C457.5,367,456.6,367.1,455.7,367.4z"/>
	<path class="st1" d="M404.4,422.6c-9.3,2.3-17.4,1.3-25-3.3c-2.6-1.6-5.4-2-8.4-2.2c-5.1-0.3-9.3-2.1-11.8-6.9
		c-1.5-2.9-0.5-6.5,2.2-8.4c3.8-2.7,8-3.1,12.1-1.3c5.2,2.2,10,1.7,15.1-0.4c7.9-3.3,16.1-3.1,23.8,0.1c5.2,2.2,8.8,6.7,6.2,12.9
		c-1.4,3.3-4.3,5.3-7.4,6.9C408.8,421.4,406.4,422.4,404.4,422.6z"/>
	<path class="st1" d="M330.9,397.5c-1.9,0.5-3.9,1-5.9,1c-4.4,0.1-7.9,2.1-10.7,5.5c-2.5,3-5.7,4.9-9.7,5.2c-5.5,0.4-9-3.6-7.9-9
		c0.8-3.9,3.2-6.9,6.6-8.8c3.6-2,6.6-4.7,8.7-8.3c2.9-4.9,7.5-7.9,12.6-10.1c6-2.7,12.3-3.7,18.8-2.1c7.7,1.9,10.1,9.1,5.5,15.5
		c-3.9,5.3-9.3,8.4-15.4,10.5C332.8,397.1,331.8,397.2,330.9,397.5z"/>
	<path class="st1" d="M279.6,452.7c-9.3,2.3-17.4,1.3-25-3.3c-2.6-1.6-5.4-2-8.4-2.2c-5.1-0.3-9.3-2.1-11.8-6.9
		c-1.5-2.9-0.5-6.5,2.2-8.4c3.8-2.7,8-3.1,12.1-1.3c5.2,2.2,10,1.7,15.1-0.4c7.9-3.3,16.1-3.1,23.8,0.1c5.2,2.2,8.8,6.7,6.2,12.9
		c-1.4,3.3-4.3,5.3-7.4,6.9C284.1,451.5,281.6,452.5,279.6,452.7z"/>
	<path class="st1" d="M206.2,427.6c-1.9,0.5-3.9,1-5.9,1c-4.4,0.1-7.9,2.1-10.7,5.5c-2.5,3-5.7,4.9-9.7,5.2c-5.5,0.4-9-3.6-7.9-9
		c0.8-3.9,3.2-6.9,6.6-8.8c3.6-2,6.6-4.7,8.7-8.3c2.9-4.9,7.5-7.9,12.6-10.1c6-2.7,12.3-3.7,18.8-2.1c7.7,1.9,10.1,9.1,5.5,15.5
		c-3.9,5.3-9.3,8.4-15.4,10.5C208,427.2,207.1,427.3,206.2,427.6z"/>
	<path class="st1" d="M154.8,482.8c-9.3,2.3-17.4,1.3-25-3.3c-2.6-1.6-5.4-2-8.4-2.2c-5.1-0.3-9.3-2.1-11.8-6.9
		c-1.5-2.9-0.5-6.5,2.2-8.4c3.8-2.7,8-3.1,12.1-1.3c5.2,2.2,10,1.7,15.1-0.4c7.9-3.3,16.1-3.1,23.8,0.1c5.2,2.2,8.8,6.7,6.2,12.9
		c-1.4,3.3-4.3,5.3-7.4,6.9C159.3,481.6,156.8,482.6,154.8,482.8z"/>
	<path class="st1" d="M81.4,457.7c-1.9,0.5-3.9,1-5.9,1c-4.4,0.1-7.9,2.1-10.7,5.5c-2.5,3-5.7,4.9-9.7,5.2c-5.5,0.4-9-3.6-7.9-9
		c0.8-3.9,3.2-6.9,6.6-8.8c3.6-2,6.6-4.7,8.7-8.3c2.9-4.9,7.5-7.9,12.6-10.1c6-2.7,12.3-3.7,18.8-2.1c7.7,1.9,10.1,9.1,5.5,15.5
		c-3.9,5.3-9.3,8.4-15.4,10.5C83.2,457.3,82.3,457.4,81.4,457.7z"/>
</g>
</svg>
