<?xml version="1.0" encoding="utf-8"?>
<!-- Generator: Adobe Illustrator 19.0.1, SVG Export Plug-In . SVG Version: 6.00 Build 0)  -->
<svg version="1.1" id="lighthouse" xmlns="http://www.w3.org/2000/svg" xmlns:xlink="http://www.w3.org/1999/xlink" x="0px" y="0px"
	 viewBox="-148 206.7 314.7 381.3" style="enable-background:new -148 206.7 314.7 381.3;" xml:space="preserve">
<style type="text/css">
	.st0{opacity:0.3;}
	.st1{fill:#05668D;}
</style>
<g id="lighthouse_1_" class="st0">
	<path class="st1" d="M-137.5,523.9l1.3,2.2l0.9,51.6c3.4-1.1,6.7-2.5,9.9-3.9c8.9-3.9,17.6-8.3,26.8-11.6c5.6-2,11.4-3.4,17.3-3.9
		c6-0.5,12,0,18,1.4c6.4,1.5,12.6,3.8,18.6,6.4c9.7,4.3,19.2,9.2,29.4,12.5c5.4,1.8,11,2.8,16.8,3.2c5.2,0.3,10.4-0.4,15.5-1.6
		c4.7-1.1,9.3-2.6,13.8-4.4c9.6-3.8,18.7-8.7,28.4-12.4c6.5-2.5,13.1-4.3,20-5.1c6.9-0.7,13.8,0,20.5,1.9c7,1.9,13.8,4.7,20.4,7.7
		c9.4,4.3,18.7,9,28.8,11.7c2.4,0.6,4.9,1.1,7.4,1.5c-2.6-31.1-18.2-218.8-23.5-269.1c1.9-1.5,2.9-3.1,2.9-4.8c0-1.4-0.7-2.7-2-4
		c1.6-1.4,2.5-3,2.5-4.7c0-1-0.3-2-0.9-2.9c0.6-0.9,0.9-1.9,0.9-2.9c0-1.3-0.6-2.6-1.6-3.8c1-1.2,1.6-2.5,1.6-3.8
		c0-4.3-5.9-8.1-15.1-10.4v-6c2.4-1.1,3.8-2.5,3.8-4c0-1.4-1.3-2.8-3.7-3.9h0.1c-1.7-5.5-12.8-9.5-15.6-10.4c0-0.1,0-0.1,0-0.2
		c0-0.6-1.1-1.2-2.8-1.5c0.9-0.9,1.4-2.1,1.4-3.4c0-2.5-1.8-4.5-4.2-4.8v-27.2c0-0.3-0.2-0.5-0.5-0.5S99,213,99,213.3v27.1
		c-2.6,0.2-4.6,2.3-4.6,4.9c0,1.3,0.5,2.5,1.4,3.4c-1.6,0.3-2.6,0.9-2.6,1.5c0,0.1,0,0.2,0.1,0.3c-3.1,1-13.8,4.9-15.5,10.3h0.1
		c-2.3,1.1-3.7,2.5-3.7,3.9s1.3,2.7,3.6,3.9v6.2c-9.1,2.3-14.9,6.1-14.9,10.4c0,1.3,0.6,2.6,1.6,3.8c-1,1.2-1.6,2.5-1.6,3.8
		c0,1,0.3,2,0.9,2.9c-0.6,0.9-0.9,1.9-0.9,2.9c0,1.7,0.9,3.2,2.5,4.7c-1.3,1.3-2,2.6-2,4c0,1.7,1,3.2,2.7,4.7L46.3,521.2l-31-27.2
		v-11h2.4l-3.2-3.8h-4.3v-2.9l-2.9-2.9H2.4l-2.6,2.6v3.2h-5.9l-1.5,3.6h2.5v7.6l-71.3-2.8v-8.9c0,0,3.2-0.4,1.7-2.2l-6.5-2.8v-2.5
		l-3.1-2.1h-8.4l-1.8,2.5L-96,473l-1.3,1.5c0,0-2.8,1.7-0.7,3.2v12.7L-137.5,523.9z M127.5,299.4c-1.2-0.5-2.6-1-4-1.4v-3.1
		c1.4-0.4,2.8-0.9,4-1.4V299.4z M127.5,292.4c-1.2,0.5-2.6,1-4,1.4v-3.9c1.4,0.4,2.8,0.9,4,1.4V292.4z M127.5,290.2
		c-1.2-0.5-2.6-1-4-1.4v-3.3h-0.1c0-0.6-0.3-1.1-0.8-1.6c1.8,0.5,3.5,1.1,4.9,1.7V290.2L127.5,290.2z M133,302.6
		c-1-0.8-2.2-1.6-3.6-2.3c2.3-1.1,4.1-2.4,5.3-3.8c0.4,0.7,0.6,1.3,0.6,2C135.2,299.9,134.4,301.3,133,302.6z M135.2,292.7
		c0,0.7-0.2,1.4-0.6,2c-0.9-1-2.1-2-3.7-2.9c1.2-0.7,2.2-1.4,3-2.2C134.7,290.7,135.2,291.7,135.2,292.7z M128.5,278.4
		c4.2,1.9,6.7,4.3,6.7,6.8c0,1.1-0.5,2.1-1.3,3.1c-1.3-1.2-3.1-2.4-5.4-3.4V278.4z M128.5,286c2,0.9,3.6,1.9,4.7,3
		c-0.9,0.8-2,1.6-3.4,2.3c-0.4-0.2-0.9-0.4-1.4-0.7L128.5,286L128.5,286z M128.5,291.8c0.1,0,0.1,0.1,0.2,0.1
		c-0.1,0-0.1,0.1-0.2,0.1V291.8z M128.5,293.1c0.5-0.2,0.9-0.4,1.4-0.7c1.9,1,3.3,2.1,4.2,3.2c-1.1,1.4-3,2.7-5.6,3.9L128.5,293.1
		L128.5,293.1z M121.1,275.8c2.4,0.6,4.5,1.3,6.4,2.1v6.5c-1.9-0.8-4-1.5-6.4-2.1V275.8z M70.5,299.4c-2.4-1.1-4.3-2.4-5.4-3.8
		c0.9-1.1,2.3-2.2,4.2-3.2c0.4,0.2,0.8,0.4,1.2,0.6C70.5,293,70.5,299.4,70.5,299.4z M70.5,290.7c-0.4,0.2-0.8,0.4-1.2,0.6
		c-1.4-0.7-2.5-1.5-3.4-2.3c1.1-1,2.6-2,4.5-2.9L70.5,290.7L70.5,290.7z M71.5,278c1.9-0.8,4-1.5,6.4-2.1v6.5
		c-2.4,0.6-4.5,1.3-6.4,2.1V278z M71.5,285.6c1.5-0.7,3.2-1.3,5.1-1.8c-0.5,0.5-0.8,1.1-0.8,1.6v3.3c-1.6,0.5-3,1-4.3,1.5
		C71.5,290.2,71.5,285.6,71.5,285.6z M71.5,291.4c1.3-0.6,2.7-1.1,4.3-1.5v4c-1.6-0.5-3-1-4.3-1.5V291.4z M71.5,293.4
		c1.3,0.5,2.7,1,4.3,1.5v3.1c-1.6,0.5-3,1-4.3,1.5V293.4z M64,285.1c0-2.5,2.4-4.8,6.5-6.7v6.4c-2.2,1-3.9,2.1-5.2,3.3
		C64.4,287.2,64,286.2,64,285.1z M65.3,289.7c0.8,0.8,1.8,1.5,3,2.2c-1.6,0.9-2.8,1.9-3.7,2.9c-0.4-0.7-0.6-1.3-0.6-2
		C64,291.7,64.4,290.7,65.3,289.7z M64,298.5c0-0.7,0.2-1.4,0.6-2c1.2,1.4,3,2.6,5.3,3.8c-1.4,0.7-2.7,1.5-3.6,2.3
		C64.8,301.3,64,299.9,64,298.5z"/>
</g>
</svg>
