<?xml version="1.0" encoding="utf-8"?>
<!-- Generator: Adobe Illustrator 19.0.1, SVG Export Plug-In . SVG Version: 6.00 Build 0)  -->
<svg version="1.1" xmlns="http://www.w3.org/2000/svg" xmlns:xlink="http://www.w3.org/1999/xlink" x="0px" y="0px"
	 viewBox="-41.3 206.6 314.7 381.3" style="enable-background:new -41.3 206.6 314.7 381.3;" xml:space="preserve">
<style type="text/css">
	.st0{fill:#5E7C76;}
</style>
<g id="Layer_1">
	<g id="Layer_7">
	</g>
	<g id="Layer_8">
	</g>
	<g id="Layer_9">
	</g>
	<g id="Layer_6">
	</g>
	<g id="Layer_10">
	</g>
	<g id="Layer_5">
	</g>
	<g id="Layer_11">
	</g>
	<g id="Layer_14">
	</g>
	<g id="Layer_12">
	</g>
</g>
<g id="Layer_2_1_">
	<path class="st0" d="M-30.9,529.9l1.3,2.2l0.9,51.6c3.4-1.1,6.7-2.5,9.9-3.9c8.9-3.9,17.6-8.3,26.8-11.6c5.6-2,11.4-3.4,17.3-3.9
		c6-0.5,12,0,18,1.4c6.4,1.5,12.6,3.8,18.6,6.4c9.7,4.3,19.2,9.2,29.4,12.5c5.4,1.8,11,2.8,16.8,3.2c5.2,0.3,10.4-0.4,15.5-1.6
		c4.7-1.1,9.3-2.6,13.8-4.4c9.6-3.8,18.7-8.7,28.4-12.4c6.5-2.5,13.1-4.3,20-5.1c6.9-0.7,13.8,0,20.5,1.9c7,1.9,13.8,4.7,20.4,7.7
		c9.4,4.3,18.7,9,28.8,11.7c2.4,0.6,4.9,1.1,7.4,1.5c-2.6-31.1-18.2-218.8-23.5-269.1c1.9-1.5,2.9-3.1,2.9-4.8c0-1.4-0.7-2.7-2-4
		c1.6-1.4,2.5-3,2.5-4.7c0-1-0.3-2-0.9-2.9c0.6-0.9,0.9-1.9,0.9-2.9c0-1.3-0.6-2.6-1.6-3.8c1-1.2,1.6-2.5,1.6-3.8
		c0-4.3-5.9-8.1-15.1-10.4v-6c2.4-1.1,3.8-2.5,3.8-4c0-1.4-1.3-2.8-3.7-3.9c0,0,0.1,0,0.1,0c-1.7-5.5-12.8-9.5-15.6-10.4
		c0-0.1,0-0.1,0-0.2c0-0.6-1.1-1.2-2.8-1.5c0.9-0.9,1.4-2.1,1.4-3.4c0-2.5-1.8-4.5-4.2-4.8v-27.2c0-0.3-0.2-0.5-0.5-0.5
		s-0.5,0.2-0.5,0.5v27.1c-2.6,0.2-4.6,2.3-4.6,4.9c0,1.3,0.5,2.5,1.4,3.4c-1.6,0.3-2.6,0.9-2.6,1.5c0,0.1,0,0.2,0.1,0.3
		c-3.1,1-13.8,4.9-15.5,10.3c0,0,0.1,0,0.1,0c-2.3,1.1-3.7,2.5-3.7,3.9c0,1.4,1.3,2.7,3.6,3.9v6.2c-9.1,2.3-14.9,6.1-14.9,10.4
		c0,1.3,0.6,2.6,1.6,3.8c-1,1.2-1.6,2.5-1.6,3.8c0,1,0.3,2,0.9,2.9c-0.6,0.9-0.9,1.9-0.9,2.9c0,1.7,0.9,3.2,2.5,4.7
		c-1.3,1.3-2,2.6-2,4c0,1.7,1,3.2,2.7,4.7l-19.9,209.2l-31-27.2V489h2.4l-3.2-3.8h-4.3v-2.9l-2.9-2.9H109l-2.6,2.6v3.2h-5.9
		l-1.5,3.6h2.5v7.6l-71.3-2.8v-8.9c0,0,3.2-0.4,1.7-2.2l-6.5-2.8v-2.5l-3.1-2.1h-8.4l-1.8,2.5l-1.5,1.4l-1.3,1.5
		c0,0-2.8,1.7-0.7,3.2v12.7L-30.9,529.9z M234.1,305.4c-1.2-0.5-2.6-1-4-1.4v-3.1c1.4-0.4,2.8-0.9,4-1.4V305.4z M234.1,298.4
		c-1.2,0.5-2.6,1-4,1.4v-3.9c1.4,0.4,2.8,0.9,4,1.4V298.4z M234.1,296.2c-1.2-0.5-2.6-1-4-1.4v-3.3H230c0-0.6-0.3-1.1-0.8-1.6
		c1.8,0.5,3.5,1.1,4.9,1.7V296.2z M239.6,308.6c-1-0.8-2.2-1.6-3.6-2.3c2.3-1.1,4.1-2.4,5.3-3.8c0.4,0.7,0.6,1.3,0.6,2
		C241.8,305.9,241,307.3,239.6,308.6z M241.8,298.7c0,0.7-0.2,1.4-0.6,2c-0.9-1-2.1-2-3.7-2.9c1.2-0.7,2.2-1.4,3-2.2
		C241.3,296.7,241.8,297.7,241.8,298.7z M235.1,284.4c4.2,1.9,6.7,4.3,6.7,6.8c0,1.1-0.5,2.1-1.3,3.1c-1.3-1.2-3.1-2.4-5.4-3.4
		V284.4z M235.1,292c2,0.9,3.6,1.9,4.7,3c-0.9,0.8-2,1.6-3.4,2.3c-0.4-0.2-0.9-0.4-1.4-0.7V292z M235.1,297.8c0.1,0,0.1,0.1,0.2,0.1
		c-0.1,0-0.1,0.1-0.2,0.1V297.8z M235.1,299.1c0.5-0.2,0.9-0.4,1.4-0.7c1.9,1,3.3,2.1,4.2,3.2c-1.1,1.4-3,2.7-5.6,3.9V299.1z
		 M227.7,281.8c2.4,0.6,4.5,1.3,6.4,2.1v6.5c-1.9-0.8-4-1.5-6.4-2.1V281.8z M177.1,305.4c-2.4-1.1-4.3-2.4-5.4-3.8
		c0.9-1.1,2.3-2.2,4.2-3.2c0.4,0.2,0.8,0.4,1.2,0.6V305.4z M177.1,296.7c-0.4,0.2-0.8,0.4-1.2,0.6c-1.4-0.7-2.5-1.5-3.4-2.3
		c1.1-1,2.6-2,4.5-2.9V296.7z M178.1,284c1.9-0.8,4-1.5,6.4-2.1v6.5c-2.4,0.6-4.5,1.3-6.4,2.1V284z M178.1,291.6
		c1.5-0.7,3.2-1.3,5.1-1.8c-0.5,0.5-0.8,1.1-0.8,1.6v3.3c-1.6,0.5-3,1-4.3,1.5V291.6z M178.1,297.4c1.3-0.6,2.7-1.1,4.3-1.5v4
		c-1.6-0.5-3-1-4.3-1.5V297.4z M178.1,299.4c1.3,0.5,2.7,1,4.3,1.5v3.1c-1.6,0.5-3,1-4.3,1.5V299.4z M170.6,291.1
		c0-2.5,2.4-4.8,6.5-6.7v6.4c-2.2,1-3.9,2.1-5.2,3.3C171,293.2,170.6,292.2,170.6,291.1z M171.9,295.7c0.8,0.8,1.8,1.5,3,2.2
		c-1.6,0.9-2.8,1.9-3.7,2.9c-0.4-0.7-0.6-1.3-0.6-2C170.6,297.7,171,296.7,171.9,295.7z M170.6,304.5c0-0.7,0.2-1.4,0.6-2
		c1.2,1.4,3,2.6,5.3,3.8c-1.4,0.7-2.7,1.5-3.6,2.3C171.4,307.3,170.6,305.9,170.6,304.5z"/>
</g>
</svg>
