<?xml version="1.0" encoding="utf-8"?>
<!-- Generator: Adobe Illustrator 19.0.1, SVG Export Plug-In . SVG Version: 6.00 Build 0)  -->
<svg version="1.1" id="logo" xmlns="http://www.w3.org/2000/svg" xmlns:xlink="http://www.w3.org/1999/xlink" x="0px" y="0px"
	 viewBox="0 0 140.7 182.7" style="enable-background:new 0 0 140.7 182.7;" xml:space="preserve">
<style type="text/css">
	.st0{fill:#E3E7E1;}
	.st1{fill:none;stroke:#E3E7E1;stroke-width:0.4;stroke-miterlimit:10;}
	.st2{fill:#D3D3D3;}
	.st3{fill:none;stroke:#E3E7E1;stroke-linecap:round;stroke-miterlimit:10;}
	.st4{fill:none;stroke:#E3E7E1;stroke-miterlimit:10;}
	.st5{fill:none;}
	.st6{fill:#E3E7E1;stroke:#E3E7E1;stroke-miterlimit:10;}
	.st7{fill:#FFFFFF;}
</style>
<g>
	<polygon class="st0" points="42.1,74.3 35.8,65.5 45.2,71.1 	"/>
	<polygon class="st0" points="97.6,74.3 103.9,65.5 94.6,71.1 	"/>
	<polygon class="st0" points="42.1,122.8 35.8,131.6 45.2,126 	"/>
	<polygon class="st0" points="97.6,122.8 103.9,131.6 94.6,126 	"/>
	<path class="st0" d="M69.4,21.9c-4.9,0-8.9,0.7-8.9,1.5v3.9c0-0.5,1.7-1,4.2-1.3v-1.8c0-0.2,0.3-0.4,0.7-0.4c0.4,0,0.7,0.2,0.7,0.4
		v1.7c0.9-0.1,1.8-0.1,2.7-0.1v-1.6c0-0.2,0.3-0.4,0.7-0.4c0.4,0,0.7,0.2,0.7,0.4v1.6c0.9,0,1.8,0,2.6,0.1v-1.7
		c0-0.2,0.3-0.4,0.7-0.4c0.4,0,0.7,0.2,0.7,0.4V26c2.5,0.3,4.2,0.7,4.2,1.3v-3.9C78.3,22.5,74.3,21.9,69.4,21.9z"/>
	<path class="st0" d="M69.3,25.6c-5.2,0-9.5,0.8-9.5,1.7c0,0.4,0.8,0.8,2.1,1c0.8-0.6,3.7-1,7.3-1c3.7,0,6.7,0.5,7.3,1.1
		c1.4-0.3,2.3-0.7,2.3-1.1C78.8,26.3,74.6,25.6,69.3,25.6z"/>
	<line class="st1" x1="64.1" y1="14.7" x2="64.1" y2="22.2"/>
	<line class="st1" x1="66.1" y1="14.7" x2="66.1" y2="22.2"/>
	<line class="st1" x1="68.3" y1="14.7" x2="68.3" y2="22.2"/>
	<line class="st1" x1="70.4" y1="14.7" x2="70.4" y2="22.2"/>
	<line class="st1" x1="72.7" y1="14.7" x2="72.7" y2="22.2"/>
	<line class="st1" x1="74.8" y1="14.5" x2="74.8" y2="22.2"/>
	<g>
		<ellipse class="st0" cx="69.4" cy="13.9" rx="6.5" ry="1"/>
		<path class="st0" d="M75.2,13.9c-0.5-2.5-3-4.4-5.9-4.4s-5.3,1.9-5.9,4.4H75.2z"/>
	</g>
	<ellipse class="st2" cx="69.4" cy="14.3" rx="6.2" ry="1"/>
	<g>
		<ellipse class="st0" cx="69.4" cy="7.6" rx="1" ry="0.9"/>
		<rect x="68.8" y="7.9" class="st0" width="1.1" height="1.4"/>
		<ellipse class="st0" cx="69.4" cy="8.8" rx="0.8" ry="0.2"/>
		<ellipse class="st0" cx="69.4" cy="9.5" rx="1" ry="0.4"/>
	</g>
	<ellipse class="st1" cx="69.4" cy="15.8" rx="6" ry="1.1"/>
	<ellipse class="st1" cx="69.4" cy="18.5" rx="6" ry="1.1"/>
	<ellipse class="st1" cx="69.4" cy="21.1" rx="6" ry="1.1"/>
	<line class="st1" x1="69.4" y1="13" x2="69.4" y2="21.9"/>
	<line class="st1" x1="71.6" y1="13.3" x2="71.6" y2="22.2"/>
	<line class="st1" x1="73.9" y1="13.3" x2="73.9" y2="22.2"/>
	<line class="st1" x1="67.1" y1="13.3" x2="67.1" y2="22.2"/>
	<line class="st1" x1="64.9" y1="13.3" x2="64.9" y2="22.2"/>
	<line class="st1" x1="75.6" y1="13.7" x2="75.6" y2="23.8"/>
	<line class="st1" x1="63.3" y1="13.7" x2="63.3" y2="23.8"/>
	<line class="st3" x1="74.4" y1="54.1" x2="74.4" y2="57.6"/>
	<line class="st3" x1="64.3" y1="42.2" x2="64.3" y2="45.7"/>
	<path class="st4" d="M70,62.2c3.1,0,6.1,0.4,9,1.1l-2.2-35.6c-2.8-0.8-7.5-1-7.5-1s-4.8,0.3-7.5,1l-2.2,36
		C62.9,62.7,66.4,62.2,70,62.2z"/>
	<path class="st4" d="M69.9,135.2c-16.3-0.1-30.2-10.7-35-25.4l-15.8,0.9c5.6,22.9,26.3,39.9,50.9,39.9c24.7,0,45.3-17,50.9-39.9
		l-16-0.9C100.1,124.5,86.2,135.2,69.9,135.2z"/>
	<g>
		<path class="st4" d="M60.5,47.6c-20.3,3.7-36.6,19.2-41.5,39.1l15.8,0.9C38.6,76,47.9,67,59.5,63.6L60.5,47.6z"/>
		<path class="st4" d="M78,47.3l1,16c12.2,3.1,22,12.4,26,24.3l16-0.9C115.9,66.2,99,50.5,78,47.3z"/>
	</g>
	<g>
		<g>
			<rect x="-15.7" y="76" class="st5" width="172" height="57.5"/>
			<path class="st0" d="M52.8,83.8l3-7.7h4.4v0.3h-0.3c-0.3,0-0.6,0.1-0.8,0.2c-0.1,0.1-0.3,0.2-0.3,0.4c-0.1,0.1-0.1,0.5-0.1,1.1
				v7.7c0,0.6,0,1,0.1,1.1s0.2,0.3,0.4,0.4c0.2,0.1,0.4,0.2,0.7,0.2h0.3v0.3h-5.7v-0.3h0.4c0.3,0,0.6-0.1,0.8-0.2
				c0.1-0.1,0.2-0.2,0.3-0.4c0.1-0.1,0.1-0.5,0.1-1.1v-8.7l-4.2,10.7h-0.2l-4.2-10.6v8.3c0,0.6,0,0.9,0,1.1c0.1,0.3,0.2,0.5,0.5,0.7
				c0.2,0.2,0.6,0.3,1.1,0.3v0.3h-3.7v-0.3h0.1c0.2,0,0.5,0,0.7-0.1c0.2-0.1,0.4-0.2,0.5-0.4s0.2-0.4,0.3-0.6c0-0.1,0-0.4,0-0.9V78
				c0-0.6,0-1-0.1-1.1c-0.1-0.1-0.2-0.3-0.4-0.4c-0.2-0.1-0.4-0.2-0.7-0.2h-0.3V76h4.5L52.8,83.8z"/>
			<path class="st0" d="M64.9,86.6c-0.9,0.9-1.7,1.3-2.5,1.3c-0.4,0-0.8-0.2-1.1-0.5S61,86.7,61,86.3c0-0.6,0.2-1.2,0.7-1.7
				c0.5-0.5,1.6-1.1,3.2-2v-0.8c0-0.6,0-1-0.1-1.2c-0.1-0.2-0.2-0.3-0.3-0.4s-0.4-0.2-0.6-0.2c-0.4,0-0.6,0.1-0.9,0.2
				c-0.1,0.1-0.2,0.2-0.2,0.4c0,0.1,0.1,0.3,0.2,0.5c0.2,0.3,0.3,0.5,0.3,0.7c0,0.3-0.1,0.5-0.3,0.7c-0.2,0.2-0.5,0.3-0.8,0.3
				c-0.3,0-0.6-0.1-0.8-0.3c-0.2-0.2-0.3-0.5-0.3-0.8c0-0.4,0.2-0.8,0.5-1.2c0.3-0.4,0.7-0.7,1.3-0.9c0.5-0.2,1.1-0.3,1.7-0.3
				c0.7,0,1.3,0.2,1.7,0.5c0.4,0.3,0.7,0.7,0.8,1.1c0.1,0.2,0.1,0.8,0.1,1.7v3.1c0,0.4,0,0.6,0,0.7s0.1,0.2,0.1,0.2
				c0.1,0,0.1,0.1,0.2,0.1c0.1,0,0.3-0.1,0.4-0.3l0.2,0.2c-0.3,0.4-0.5,0.7-0.8,0.9s-0.6,0.3-1,0.3c-0.4,0-0.8-0.1-1-0.3
				C65.1,87.3,65,87,64.9,86.6z M64.9,85.9v-2.7c-0.6,0.4-1.1,0.8-1.4,1.3c-0.2,0.3-0.3,0.6-0.3,0.9c0,0.3,0.1,0.5,0.3,0.7
				c0.1,0.2,0.3,0.2,0.6,0.2C64.3,86.4,64.6,86.3,64.9,85.9z"/>
			<path class="st0" d="M71.9,79.7v1.8c0.5-0.8,0.9-1.4,1.3-1.7c0.4-0.3,0.7-0.4,1.1-0.4c0.3,0,0.5,0.1,0.7,0.3
				c0.2,0.2,0.3,0.5,0.3,0.8c0,0.4-0.1,0.7-0.3,0.9c-0.2,0.2-0.4,0.3-0.6,0.3c-0.3,0-0.5-0.1-0.7-0.3c-0.2-0.2-0.3-0.3-0.4-0.3
				c-0.1,0-0.1-0.1-0.2-0.1c-0.2,0-0.3,0.1-0.4,0.2c-0.2,0.2-0.4,0.5-0.5,0.8c-0.2,0.6-0.3,1.2-0.3,1.8v1.9l0,0.5c0,0.3,0,0.5,0,0.6
				c0.1,0.2,0.2,0.3,0.3,0.3c0.1,0.1,0.3,0.1,0.6,0.1v0.3h-4.1v-0.3c0.3,0,0.5-0.1,0.7-0.3c0.1-0.2,0.2-0.6,0.2-1.3v-4.5
				c0-0.5,0-0.8-0.1-0.9c-0.1-0.2-0.1-0.3-0.2-0.4C69.2,80.1,69,80,68.8,80v-0.3H71.9z"/>
			<path class="st0" d="M78.7,79.7v6.4c0,0.6,0.1,0.9,0.2,1.1c0.1,0.2,0.4,0.2,0.7,0.3v0.3h-4.1v-0.3c0.3,0,0.6-0.1,0.7-0.3
				c0.1-0.1,0.2-0.5,0.2-1.1v-4.7c0-0.6-0.1-0.9-0.2-1.1S75.9,80,75.5,80v-0.3H78.7z M77.6,75.8c0.3,0,0.6,0.1,0.9,0.4
				c0.2,0.3,0.4,0.6,0.4,0.9c0,0.4-0.1,0.7-0.4,0.9s-0.5,0.4-0.9,0.4c-0.3,0-0.6-0.1-0.9-0.4c-0.2-0.3-0.4-0.6-0.4-0.9
				c0-0.4,0.1-0.7,0.4-0.9C76.9,75.9,77.2,75.8,77.6,75.8z"/>
			<path class="st0" d="M83.1,79.7v1.1c0.4-0.5,0.8-0.8,1.1-1c0.4-0.2,0.7-0.3,1.1-0.3c0.5,0,0.9,0.1,1.2,0.4
				c0.3,0.3,0.5,0.6,0.6,1.1c0.1,0.3,0.1,1,0.1,1.9V86c0,0.6,0.1,1,0.2,1.2s0.3,0.2,0.7,0.3v0.3h-3.8v-0.3c0.3,0,0.5-0.2,0.6-0.4
				c0.1-0.2,0.1-0.5,0.1-1.1v-3.6c0-0.7,0-1.1-0.1-1.3c-0.1-0.2-0.1-0.3-0.2-0.4s-0.2-0.1-0.4-0.1c-0.5,0-0.9,0.4-1.3,1.1V86
				c0,0.6,0.1,1,0.2,1.1s0.3,0.3,0.6,0.3v0.3h-3.8v-0.3c0.3,0,0.5-0.1,0.7-0.3c0.1-0.1,0.1-0.5,0.1-1.1v-4.6c0-0.6-0.1-1-0.2-1.1
				c-0.1-0.1-0.3-0.2-0.7-0.3v-0.3H83.1z"/>
			<path class="st0" d="M95.3,83.4h-4.1c0,1.1,0.3,1.9,0.8,2.5c0.4,0.5,0.8,0.7,1.3,0.7c0.3,0,0.6-0.1,0.9-0.3
				c0.3-0.2,0.5-0.5,0.8-1l0.3,0.2c-0.4,0.9-0.9,1.5-1.3,1.9c-0.5,0.4-1.1,0.6-1.7,0.6c-1.1,0-2-0.5-2.5-1.4
				C89.2,85.9,89,85,89,83.8c0-1.3,0.3-2.4,1-3.2c0.7-0.8,1.5-1.2,2.4-1.2c0.8,0,1.4,0.3,2,1C95,81.1,95.3,82.1,95.3,83.4z
				 M93.3,82.8c0-0.9,0-1.6-0.1-1.9c-0.1-0.3-0.2-0.6-0.4-0.8C92.6,80,92.5,80,92.3,80c-0.3,0-0.5,0.1-0.7,0.4
				c-0.3,0.5-0.5,1.2-0.5,2.1v0.3H93.3z"/>
			<path class="st0" d="M45.2,98.1v3.6c0,0.6,0,1,0.1,1.1c0.1,0.2,0.2,0.3,0.4,0.4c0.2,0.1,0.4,0.2,0.7,0.2h0.4v0.3h-5.7v-0.3h0.4
				c0.3,0,0.6-0.1,0.8-0.2c0.1-0.1,0.2-0.2,0.3-0.4c0.1-0.1,0.1-0.5,0.1-1.1V94c0-0.6,0-1-0.1-1.1c-0.1-0.1-0.2-0.3-0.4-0.4
				c-0.2-0.1-0.4-0.2-0.7-0.2h-0.4V92h5.7v0.3h-0.4c-0.3,0-0.6,0.1-0.8,0.2c-0.1,0.1-0.3,0.2-0.3,0.4c-0.1,0.1-0.1,0.5-0.1,1.1v3.3
				h3.8V94c0-0.6,0-1-0.1-1.1c-0.1-0.1-0.2-0.3-0.4-0.4c-0.2-0.1-0.4-0.2-0.7-0.2h-0.3V92h5.7v0.3h-0.4c-0.3,0-0.6,0.1-0.8,0.2
				c-0.1,0.1-0.3,0.2-0.3,0.4c-0.1,0.1-0.1,0.5-0.1,1.1v7.7c0,0.6,0,1,0.1,1.1c0.1,0.2,0.2,0.3,0.4,0.4c0.2,0.1,0.4,0.2,0.7,0.2h0.4
				v0.3h-5.7v-0.3h0.3c0.3,0,0.6-0.1,0.8-0.2c0.1-0.1,0.2-0.2,0.3-0.4c0.1-0.1,0.1-0.5,0.1-1.1v-3.6H45.2z"/>
			<path class="st0" d="M60.1,99.4H56c0,1.1,0.3,1.9,0.8,2.5c0.4,0.5,0.8,0.7,1.3,0.7c0.3,0,0.6-0.1,0.9-0.3c0.3-0.2,0.5-0.5,0.8-1
				l0.3,0.2c-0.4,0.9-0.9,1.5-1.3,1.9c-0.5,0.4-1.1,0.6-1.7,0.6c-1.1,0-2-0.5-2.5-1.4c-0.5-0.7-0.7-1.7-0.7-2.8c0-1.3,0.3-2.4,1-3.2
				c0.7-0.8,1.5-1.2,2.4-1.2c0.8,0,1.4,0.3,2,1C59.8,97.1,60.1,98.1,60.1,99.4z M58.2,98.8c0-0.9,0-1.6-0.1-1.9
				c-0.1-0.3-0.2-0.6-0.4-0.8C57.5,96,57.3,96,57.1,96c-0.3,0-0.5,0.1-0.7,0.4c-0.3,0.5-0.5,1.2-0.5,2.1v0.3H58.2z"/>
			<path class="st0" d="M63.9,95.7v1.8c0.5-0.8,0.9-1.4,1.3-1.7s0.7-0.4,1.1-0.4c0.3,0,0.5,0.1,0.7,0.3c0.2,0.2,0.3,0.5,0.3,0.8
				c0,0.4-0.1,0.7-0.3,0.9c-0.2,0.2-0.4,0.3-0.6,0.3c-0.3,0-0.5-0.1-0.7-0.3c-0.2-0.2-0.3-0.3-0.4-0.3c-0.1,0-0.1-0.1-0.2-0.1
				c-0.2,0-0.3,0.1-0.4,0.2c-0.2,0.2-0.4,0.5-0.5,0.8c-0.2,0.6-0.3,1.2-0.3,1.8v1.9l0,0.5c0,0.3,0,0.5,0,0.6
				c0.1,0.2,0.2,0.3,0.3,0.3c0.1,0.1,0.3,0.1,0.6,0.1v0.3h-4.1v-0.3c0.3,0,0.5-0.1,0.7-0.3s0.2-0.6,0.2-1.3v-4.5
				c0-0.5,0-0.8-0.1-0.9c-0.1-0.2-0.1-0.3-0.2-0.4c-0.1-0.1-0.3-0.1-0.5-0.2v-0.3H63.9z"/>
			<path class="st0" d="M70.8,95.7v6.4c0,0.6,0.1,0.9,0.2,1.1c0.1,0.2,0.4,0.2,0.7,0.3v0.3h-4.1v-0.3c0.3,0,0.6-0.1,0.7-0.3
				c0.1-0.1,0.2-0.5,0.2-1.1v-4.7c0-0.6-0.1-0.9-0.2-1.1S68,96,67.6,96v-0.3H70.8z M69.6,91.8c0.3,0,0.6,0.1,0.9,0.4
				c0.2,0.3,0.4,0.6,0.4,0.9c0,0.4-0.1,0.7-0.4,0.9s-0.5,0.4-0.9,0.4c-0.3,0-0.6-0.1-0.9-0.4c-0.2-0.3-0.4-0.6-0.4-0.9
				c0-0.4,0.1-0.7,0.4-0.9C69,91.9,69.3,91.8,69.6,91.8z"/>
			<path class="st0" d="M75.1,92.7v3h1.8v0.9h-1.8v5c0,0.5,0,0.8,0.1,0.9s0.1,0.2,0.2,0.3c0.1,0.1,0.2,0.1,0.3,0.1
				c0.3,0,0.7-0.3,1-0.9l0.2,0.2c-0.4,1.1-1.1,1.7-2.1,1.7c-0.5,0-0.9-0.1-1.2-0.4c-0.3-0.3-0.5-0.6-0.6-1c-0.1-0.2-0.1-0.7-0.1-1.6
				v-4.4h-1v-0.3c0.7-0.5,1.2-1.1,1.7-1.6c0.5-0.6,0.9-1.2,1.2-1.9H75.1z"/>
			<path class="st0" d="M81.5,102.6c-0.9,0.9-1.7,1.3-2.5,1.3c-0.4,0-0.8-0.2-1.1-0.5s-0.4-0.7-0.4-1.1c0-0.6,0.2-1.2,0.7-1.7
				c0.5-0.5,1.6-1.1,3.2-2v-0.8c0-0.6,0-1-0.1-1.2s-0.2-0.3-0.3-0.4s-0.4-0.2-0.6-0.2c-0.4,0-0.6,0.1-0.9,0.2
				c-0.1,0.1-0.2,0.2-0.2,0.4c0,0.1,0.1,0.3,0.2,0.5c0.2,0.3,0.3,0.5,0.3,0.7c0,0.3-0.1,0.5-0.3,0.7c-0.2,0.2-0.5,0.3-0.8,0.3
				c-0.3,0-0.6-0.1-0.8-0.3c-0.2-0.2-0.3-0.5-0.3-0.8c0-0.4,0.2-0.8,0.5-1.2s0.7-0.7,1.3-0.9c0.5-0.2,1.1-0.3,1.7-0.3
				c0.7,0,1.3,0.2,1.7,0.5c0.4,0.3,0.7,0.7,0.8,1.1c0.1,0.2,0.1,0.8,0.1,1.7v3.1c0,0.4,0,0.6,0,0.7s0.1,0.2,0.1,0.2
				c0.1,0,0.1,0.1,0.2,0.1c0.1,0,0.3-0.1,0.4-0.3l0.2,0.2c-0.3,0.4-0.5,0.7-0.8,0.9s-0.6,0.3-1,0.3c-0.4,0-0.8-0.1-1-0.3
				C81.7,103.3,81.5,103,81.5,102.6z M81.5,101.9v-2.7c-0.6,0.4-1.1,0.8-1.4,1.3c-0.2,0.3-0.3,0.6-0.3,0.9c0,0.3,0.1,0.5,0.3,0.7
				c0.1,0.2,0.3,0.2,0.6,0.2C80.8,102.4,81.1,102.3,81.5,101.9z"/>
			<path class="st0" d="M90.1,95.8h2.5v1h-1.4c0.3,0.3,0.4,0.5,0.5,0.8c0.1,0.3,0.2,0.6,0.2,1c0,0.6-0.1,1.1-0.4,1.5
				c-0.3,0.4-0.7,0.8-1.2,1c-0.5,0.2-1,0.4-1.4,0.4c0,0-0.3,0-1,0c-0.2,0-0.4,0.1-0.6,0.3c-0.2,0.2-0.2,0.4-0.2,0.6
				c0,0.2,0.1,0.4,0.2,0.5c0.1,0.1,0.4,0.2,0.7,0.2l1.4,0c1.1,0,1.9,0.1,2.3,0.4c0.6,0.4,0.9,0.9,0.9,1.7c0,0.5-0.1,0.9-0.4,1.3
				c-0.3,0.4-0.6,0.7-1.1,0.9c-0.7,0.3-1.5,0.4-2.4,0.4c-0.7,0-1.3-0.1-1.8-0.2c-0.6-0.1-1-0.3-1.2-0.6c-0.2-0.3-0.4-0.5-0.4-0.8
				c0-0.3,0.1-0.5,0.3-0.7s0.5-0.4,1-0.5c-0.7-0.4-1-0.9-1-1.5c0-0.4,0.1-0.8,0.4-1.2s0.7-0.7,1.3-1c-0.7-0.3-1.2-0.7-1.6-1.1
				c-0.3-0.5-0.5-1-0.5-1.6c0-0.8,0.3-1.5,0.9-2.1s1.4-0.9,2.3-0.9C89,95.4,89.6,95.5,90.1,95.8z M88.2,105c-0.5,0-0.9,0-1.1,0.2
				c-0.3,0.2-0.5,0.4-0.5,0.7c0,0.3,0.2,0.6,0.5,0.8s0.9,0.4,1.8,0.4c0.7,0,1.3-0.1,1.8-0.3c0.4-0.2,0.6-0.5,0.6-0.9
				c0-0.1,0-0.3-0.1-0.4c-0.1-0.2-0.4-0.3-0.6-0.4S89.5,105,88.2,105z M88.7,96c-0.3,0-0.6,0.2-0.8,0.5c-0.2,0.3-0.3,1-0.3,2.1
				c0,0.9,0.1,1.4,0.3,1.8c0.2,0.3,0.5,0.5,0.7,0.5c0.3,0,0.6-0.2,0.8-0.5c0.2-0.3,0.3-0.9,0.3-1.8c0-1-0.1-1.7-0.4-2.1
				C89.2,96.1,89,96,88.7,96z"/>
			<path class="st0" d="M99.6,99.4h-4.1c0,1.1,0.3,1.9,0.8,2.5c0.4,0.5,0.8,0.7,1.3,0.7c0.3,0,0.6-0.1,0.9-0.3
				c0.3-0.2,0.5-0.5,0.8-1l0.3,0.2c-0.4,0.9-0.9,1.5-1.3,1.9c-0.5,0.4-1.1,0.6-1.7,0.6c-1.1,0-2-0.5-2.5-1.4
				c-0.5-0.7-0.7-1.7-0.7-2.8c0-1.3,0.3-2.4,1-3.2c0.7-0.8,1.5-1.2,2.4-1.2c0.8,0,1.4,0.3,2,1C99.2,97.1,99.5,98.1,99.6,99.4z
				 M97.6,98.8c0-0.9,0-1.6-0.1-1.9c-0.1-0.3-0.2-0.6-0.4-0.8C96.9,96,96.8,96,96.6,96c-0.3,0-0.5,0.1-0.7,0.4
				c-0.3,0.5-0.5,1.2-0.5,2.1v0.3H97.6z"/>
			<path class="st0" d="M53.8,107.8l0.1,3.9h-0.3c-0.2-1-0.5-1.8-1.1-2.4s-1.3-0.9-2-0.9c-0.5,0-1,0.2-1.3,0.5
				c-0.3,0.3-0.5,0.7-0.5,1.1c0,0.3,0.1,0.5,0.2,0.7c0.2,0.3,0.4,0.5,0.7,0.8c0.3,0.2,0.8,0.5,1.7,1c1.3,0.7,2.1,1.3,2.6,1.9
				c0.4,0.6,0.7,1.3,0.7,2.1c0,1-0.4,1.8-1.1,2.5c-0.7,0.7-1.6,1.1-2.7,1.1c-0.3,0-0.7,0-1-0.1c-0.3-0.1-0.7-0.2-1.1-0.4
				c-0.3-0.1-0.5-0.2-0.6-0.2c-0.1,0-0.3,0.1-0.4,0.2s-0.3,0.3-0.4,0.5h-0.3v-4.4h0.3c0.2,1.2,0.7,2.2,1.4,2.8c0.7,0.7,1.4,1,2.2,1
				c0.6,0,1.1-0.2,1.4-0.5s0.5-0.8,0.5-1.2c0-0.3-0.1-0.5-0.2-0.8c-0.1-0.3-0.3-0.5-0.6-0.7c-0.3-0.2-0.8-0.5-1.5-0.9
				c-1-0.5-1.7-1-2.1-1.3c-0.4-0.4-0.8-0.8-1-1.2c-0.2-0.5-0.3-1-0.3-1.5c0-0.9,0.3-1.7,1-2.4c0.6-0.7,1.4-1,2.4-1
				c0.4,0,0.7,0,1,0.1c0.3,0.1,0.6,0.2,0.9,0.4c0.4,0.2,0.6,0.3,0.8,0.3c0.1,0,0.2,0,0.3-0.1c0.1-0.1,0.2-0.3,0.2-0.7H53.8z"/>
			<path class="st0" d="M59,111.4c0.7,0,1.3,0.2,1.8,0.5c0.6,0.4,1,0.9,1.3,1.5c0.3,0.7,0.4,1.4,0.4,2.2c0,1.1-0.3,2.1-0.8,2.9
				c-0.7,0.9-1.6,1.4-2.7,1.4c-1.1,0-2-0.4-2.6-1.3c-0.6-0.9-0.9-1.8-0.9-3c0-1.2,0.3-2.2,0.9-3C57.1,111.9,57.9,111.4,59,111.4z
				 M59,112c-0.3,0-0.5,0.1-0.7,0.3c-0.2,0.2-0.3,0.7-0.4,1.3c-0.1,0.7-0.1,1.6-0.1,2.7c0,0.6,0,1.2,0.1,1.7
				c0.1,0.4,0.2,0.7,0.4,0.9s0.4,0.3,0.7,0.3c0.2,0,0.4-0.1,0.6-0.2c0.2-0.2,0.3-0.5,0.4-0.8c0.1-0.5,0.2-1.7,0.2-3.3
				c0-1-0.1-1.7-0.2-2c-0.1-0.4-0.3-0.6-0.4-0.8C59.5,112.1,59.3,112,59,112z"/>
			<path class="st0" d="M69.6,117.7l0.3,0.2c-0.4,0.7-0.8,1.3-1.3,1.6c-0.5,0.4-1.1,0.5-1.7,0.5c-1,0-1.8-0.4-2.4-1.2
				c-0.6-0.8-0.9-1.8-0.9-2.9c0-1.1,0.3-2.1,0.8-2.9c0.7-1,1.6-1.5,2.7-1.5c0.8,0,1.4,0.2,1.9,0.6s0.7,0.9,0.7,1.4
				c0,0.3-0.1,0.6-0.3,0.8c-0.2,0.2-0.4,0.3-0.7,0.3c-0.3,0-0.6-0.1-0.8-0.3c-0.2-0.2-0.3-0.6-0.4-1.2c0-0.4-0.1-0.6-0.2-0.8
				c-0.1-0.1-0.3-0.2-0.4-0.2c-0.3,0-0.5,0.1-0.7,0.4c-0.3,0.4-0.4,1.1-0.4,2c0,0.8,0.1,1.5,0.3,2.2s0.5,1.2,0.9,1.6
				c0.3,0.3,0.6,0.4,1,0.4c0.3,0,0.5-0.1,0.7-0.2C68.9,118.3,69.2,118,69.6,117.7z"/>
			<path class="st0" d="M73.4,111.7v6.4c0,0.6,0.1,0.9,0.2,1.1c0.1,0.2,0.4,0.2,0.7,0.3v0.3h-4.1v-0.3c0.3,0,0.6-0.1,0.7-0.3
				c0.1-0.1,0.2-0.5,0.2-1.1v-4.7c0-0.6-0.1-0.9-0.2-1.1s-0.4-0.3-0.7-0.3v-0.3H73.4z M72.3,107.8c0.3,0,0.6,0.1,0.9,0.4
				c0.2,0.3,0.4,0.6,0.4,0.9c0,0.4-0.1,0.7-0.4,0.9s-0.5,0.4-0.9,0.4c-0.3,0-0.6-0.1-0.9-0.4c-0.2-0.3-0.4-0.6-0.4-0.9
				c0-0.4,0.1-0.7,0.4-0.9C71.6,107.9,71.9,107.8,72.3,107.8z"/>
			<path class="st0" d="M81.1,115.4H77c0,1.1,0.3,1.9,0.8,2.5c0.4,0.5,0.8,0.7,1.3,0.7c0.3,0,0.6-0.1,0.9-0.3c0.3-0.2,0.5-0.5,0.8-1
				l0.3,0.2c-0.4,0.9-0.9,1.5-1.3,1.9c-0.5,0.4-1.1,0.6-1.7,0.6c-1.1,0-2-0.5-2.5-1.4c-0.5-0.7-0.7-1.7-0.7-2.8c0-1.3,0.3-2.4,1-3.2
				c0.7-0.8,1.5-1.2,2.4-1.2c0.8,0,1.4,0.3,2,1C80.8,113.1,81.1,114.1,81.1,115.4z M79.1,114.8c0-0.9,0-1.6-0.1-1.9
				c-0.1-0.3-0.2-0.6-0.4-0.8c-0.1-0.1-0.3-0.2-0.5-0.2c-0.3,0-0.5,0.1-0.7,0.4c-0.3,0.5-0.5,1.2-0.5,2.1v0.3H79.1z"/>
			<path class="st0" d="M84.7,108.7v3h1.8v0.9h-1.8v5c0,0.5,0,0.8,0.1,0.9s0.1,0.2,0.2,0.3c0.1,0.1,0.2,0.1,0.3,0.1
				c0.3,0,0.7-0.3,1-0.9l0.2,0.2c-0.4,1.1-1.1,1.7-2.1,1.7c-0.5,0-0.9-0.1-1.2-0.4c-0.3-0.3-0.5-0.6-0.6-1c-0.1-0.2-0.1-0.7-0.1-1.6
				v-4.4h-1v-0.3c0.7-0.5,1.2-1.1,1.7-1.6c0.5-0.6,0.9-1.2,1.2-1.9H84.7z"/>
			<path class="st0" d="M90.4,120.1l-2.4-6c-0.4-0.9-0.6-1.5-0.8-1.7c-0.2-0.2-0.4-0.4-0.6-0.4v-0.3h4v0.3c-0.3,0-0.5,0.1-0.6,0.2
				s-0.2,0.2-0.2,0.3c0,0.2,0.1,0.7,0.4,1.3l1.3,3.2l0.9-2.4c0.3-0.9,0.5-1.5,0.5-1.8c0-0.2-0.1-0.4-0.2-0.5
				c-0.1-0.1-0.4-0.2-0.7-0.2v-0.3h2.5v0.3c-0.2,0-0.4,0.1-0.6,0.3c-0.2,0.2-0.4,0.8-0.8,1.8l-2.1,6c-0.5,1.5-0.9,2.4-1.2,2.8
				c-0.4,0.5-0.8,0.7-1.4,0.7c-0.4,0-0.8-0.1-1.1-0.4s-0.4-0.6-0.4-1c0-0.3,0.1-0.6,0.3-0.8c0.2-0.2,0.4-0.3,0.7-0.3
				c0.3,0,0.5,0.1,0.6,0.3s0.2,0.5,0.3,0.9c0,0.2,0,0.4,0.1,0.4c0,0.1,0.1,0.1,0.2,0.1c0.1,0,0.3-0.1,0.4-0.2
				c0.2-0.2,0.5-0.8,0.8-1.7L90.4,120.1z"/>
		</g>
		<g>
			<g>
				<path class="st0" d="M36.5,43.4c0.4,0.6,0.6,0.9,1.1,1.5c0,0-0.1,0-0.1,0.1c-0.4-0.4-0.9-0.6-1.3-0.6s-0.9,0.1-1.3,0.4
					c-0.4,0.2-0.6,0.5-0.8,0.9c-0.2,0.3-0.3,0.7-0.2,1.2c0.1,0.4,0.3,0.9,0.6,1.4c0.3,0.4,0.6,0.7,0.9,0.9s0.7,0.3,1.1,0.2
					c0.4,0,0.8-0.2,1.2-0.4c0.3-0.2,0.6-0.5,0.8-0.7c0.2-0.3,0.3-0.7,0.4-1.3c0.1,0,0.1,0,0.2,0c0,0.6-0.1,1-0.4,1.4
					c-0.2,0.4-0.6,0.7-1,1c-0.8,0.5-1.6,0.7-2.5,0.5c-0.6-0.2-1.1-0.5-1.5-1c-0.3-0.4-0.5-0.9-0.5-1.4c0-0.5,0.1-1,0.4-1.5
					c0.3-0.5,0.7-0.9,1.2-1.2c0.4-0.3,0.8-0.4,1.3-0.5c0.1,0,0.2,0,0.3-0.1c0.1,0,0.1-0.1,0.2-0.2c0-0.1,0-0.2,0-0.3
					C36.4,43.4,36.4,43.4,36.5,43.4z"/>
				<path class="st0" d="M38.3,42.1c0.5,0.9,0.8,1.4,1.3,2.3c0.1-0.4,0.3-0.8,0.4-0.9c0.1-0.2,0.3-0.3,0.5-0.4
					c0.2-0.1,0.4-0.2,0.6-0.1c0.2,0,0.4,0.1,0.6,0.3c0.1,0.1,0.3,0.4,0.5,0.8c0.2,0.5,0.3,0.7,0.6,1.1c0.1,0.2,0.2,0.3,0.3,0.4
					c0.1,0,0.1,0.1,0.2,0.1c0.1,0,0.2,0,0.4-0.1c0,0.1,0,0.1,0.1,0.1c-0.7,0.3-1.1,0.5-1.8,0.9c0,0,0-0.1-0.1-0.1c0,0,0,0,0.1,0
					c0.2-0.1,0.3-0.2,0.3-0.2s0.1-0.2,0-0.3c0,0-0.1-0.2-0.2-0.3c-0.2-0.5-0.4-0.7-0.6-1.1c-0.2-0.3-0.3-0.6-0.4-0.7
					c-0.1-0.1-0.2-0.1-0.3-0.1c-0.1,0-0.2,0-0.4,0.1c-0.1,0.1-0.3,0.2-0.4,0.3s-0.2,0.4-0.3,0.6c0.4,0.7,0.6,1,0.9,1.7
					c0.1,0.2,0.2,0.3,0.3,0.4c0.1,0,0.1,0.1,0.2,0c0.1,0,0.2-0.1,0.4-0.2c0,0,0,0.1,0.1,0.1c-0.7,0.4-1,0.6-1.7,1c0,0,0-0.1-0.1-0.1
					c0.2-0.1,0.3-0.2,0.3-0.3c0-0.1,0.1-0.1,0-0.2c0-0.1-0.1-0.2-0.2-0.4c-0.6-1.1-1-1.7-1.6-2.8c-0.2-0.4-0.3-0.6-0.4-0.6
					c-0.1-0.1-0.1-0.1-0.2-0.1c-0.1,0-0.1,0-0.2,0.1c-0.1,0-0.1,0.1-0.2,0.2c-0.1,0-0.1-0.1-0.1-0.1c0.4-0.4,0.5-0.6,0.9-1
					C38.2,42.2,38.3,42.2,38.3,42.1z"/>
				<path class="st0" d="M45.8,44.1c-0.3,0.4-0.4,0.7-0.5,0.8c-0.1,0.1-0.3,0.2-0.4,0.3c-0.2,0.1-0.5,0.1-0.7,0.1
					c-0.2-0.1-0.4-0.2-0.5-0.5c-0.1-0.2-0.1-0.3-0.1-0.5c0-0.2,0.2-0.5,0.4-0.7c0.2-0.3,0.6-0.7,1.1-1.2c0-0.1,0-0.1-0.1-0.1
					c-0.1-0.3-0.3-0.5-0.5-0.6c-0.2-0.1-0.4-0.1-0.6,0.1c-0.2,0.1-0.3,0.2-0.4,0.3c-0.1,0.1-0.1,0.3,0,0.4c0,0.1,0.1,0.1,0.1,0.2
					c0.1,0.1,0.1,0.2,0,0.3S43.6,43,43.5,43c-0.1,0-0.2,0.1-0.3,0c-0.1,0-0.2-0.1-0.2-0.2c-0.1-0.2-0.1-0.4,0.1-0.7
					c0.2-0.3,0.5-0.5,0.9-0.7c0.3-0.2,0.6-0.2,0.9-0.2c0.2,0,0.4,0.1,0.5,0.2c0.1,0.1,0.2,0.3,0.3,0.6c0.2,0.4,0.3,0.7,0.5,1.1
					c0.1,0.3,0.2,0.5,0.3,0.6c0,0.1,0.1,0.1,0.1,0.1c0,0,0.1,0,0.1,0c0,0,0.1,0,0.1-0.1c0-0.1,0.1-0.2,0.2-0.4
					c0,0.1,0.1,0.1,0.1,0.2c-0.2,0.5-0.4,0.8-0.6,0.9c-0.1,0.1-0.2,0.1-0.4,0C46,44.4,45.9,44.2,45.8,44.1z M45.7,43.8
					c-0.2-0.5-0.3-0.8-0.6-1.3c-0.3,0.3-0.6,0.6-0.7,0.7c-0.2,0.2-0.3,0.4-0.3,0.5c0,0.2,0,0.3,0,0.4c0.1,0.2,0.2,0.3,0.4,0.3
					c0.2,0.1,0.3,0.1,0.5,0C45.3,44.4,45.5,44.2,45.7,43.8z"/>
				<path class="st0" d="M47.6,40.7c0.3-0.6,0.6-1.1,1.1-1.2c0.2-0.1,0.4-0.1,0.6-0.1c0.2,0,0.4,0.1,0.5,0.3
					c0.1,0.1,0.2,0.3,0.3,0.7c0.2,0.6,0.3,0.9,0.5,1.5c0.1,0.2,0.1,0.4,0.2,0.4c0.1,0,0.1,0.1,0.2,0.1c0.1,0,0.2,0,0.4-0.1
					c0,0.1,0,0.1,0,0.1c-0.7,0.2-1.1,0.4-1.8,0.6c0-0.1,0-0.1,0-0.1c0,0,0,0,0.1,0c0.2-0.1,0.3-0.1,0.3-0.2c0.1-0.1,0.1-0.2,0.1-0.3
					c0,0,0-0.2-0.1-0.4c-0.2-0.6-0.3-0.8-0.5-1.4c-0.1-0.3-0.2-0.5-0.4-0.6s-0.3-0.1-0.5,0c-0.3,0.1-0.6,0.4-0.8,0.9
					c0.3,0.7,0.4,1.1,0.7,1.8c0.1,0.2,0.2,0.4,0.2,0.4c0.1,0.1,0.1,0.1,0.2,0.1c0.1,0,0.2,0,0.4-0.1c0,0.1,0,0.1,0,0.1
					c-0.7,0.3-1.1,0.4-1.8,0.7c0-0.1,0-0.1-0.1-0.1c0,0,0,0,0.1,0c0.2-0.1,0.3-0.2,0.3-0.3c0-0.1,0-0.3-0.1-0.5
					c-0.2-0.5-0.3-0.7-0.5-1.2c-0.2-0.4-0.3-0.6-0.3-0.7s-0.1-0.1-0.2-0.1c-0.1,0-0.1,0-0.2,0c-0.1,0-0.2,0.1-0.3,0.2
					c0,0-0.1-0.1-0.1-0.1c0.4-0.4,0.6-0.5,1-0.9c0.1,0,0.1,0,0.2-0.1C47.5,40.3,47.5,40.4,47.6,40.7z"/>
				<path class="st0" d="M51.5,37.4c0.1,0.5,0.2,0.7,0.3,1.1c0.4-0.1,0.6-0.2,0.9-0.3c0,0.1,0,0.2,0.1,0.3c-0.4,0.1-0.6,0.2-0.9,0.3
					c0.3,0.9,0.4,1.3,0.7,2.2c0.1,0.2,0.1,0.4,0.2,0.4c0.1,0.1,0.2,0.1,0.3,0c0.1,0,0.2-0.1,0.2-0.2c0.1-0.1,0.1-0.2,0.1-0.3
					c0.1,0,0.1,0,0.2,0c0,0.3-0.1,0.5-0.3,0.7s-0.3,0.3-0.5,0.3c-0.1,0-0.3,0-0.4,0c-0.1,0-0.3-0.1-0.4-0.2s-0.2-0.3-0.3-0.5
					c-0.3-0.9-0.4-1.4-0.7-2.3c-0.3,0.1-0.4,0.1-0.6,0.2c0-0.1,0-0.1,0-0.1c0.1-0.1,0.3-0.2,0.4-0.4c0.1-0.2,0.2-0.4,0.3-0.6
					c0-0.1,0.1-0.3,0.1-0.6C51.4,37.5,51.4,37.5,51.5,37.4z"/>
				<path class="st0" d="M54.3,37.8c0.1,0.3,0.1,0.5,0.2,0.8c0.2-0.6,0.5-1,0.8-1c0.2,0,0.3,0,0.4,0c0.1,0.1,0.2,0.1,0.2,0.3
					c0,0.1,0,0.2-0.1,0.3c-0.1,0.1-0.1,0.1-0.2,0.2s-0.2,0-0.4,0c-0.1-0.1-0.3-0.1-0.3-0.1c-0.1,0-0.1,0.1-0.2,0.1
					c-0.1,0.1-0.2,0.3-0.3,0.6c0.2,0.7,0.3,1,0.4,1.7c0,0.2,0.1,0.3,0.2,0.4c0.1,0.1,0.1,0.1,0.2,0.1c0.1,0,0.2,0,0.4,0
					c0,0.1,0,0.1,0,0.1c-0.8,0.2-1.2,0.3-1.9,0.5c0-0.1,0-0.1,0-0.1c0.2-0.1,0.3-0.1,0.4-0.2c0.1-0.1,0.1-0.1,0.1-0.2
					c0,0,0-0.2-0.1-0.4c-0.1-0.5-0.2-0.8-0.4-1.3c-0.1-0.4-0.2-0.6-0.2-0.7c0-0.1-0.1-0.1-0.1-0.1s-0.1,0-0.2,0
					c-0.1,0-0.2,0.1-0.3,0.1c0,0-0.1-0.1-0.1-0.1c0.4-0.3,0.7-0.5,1.1-0.8C54.2,37.8,54.2,37.8,54.3,37.8z"/>
				<path class="st0" d="M55.9,37.5c0.8-0.2,1.1-0.3,1.9-0.4c0,0.1,0,0.1,0,0.1c0,0-0.1,0-0.1,0c-0.1,0-0.2,0.1-0.3,0.1
					c-0.1,0.1-0.1,0.1-0.1,0.2c0,0.1,0.1,0.2,0.2,0.4c0.5,0.6,0.8,1,1.3,1.6c0.2-0.8,0.3-1.3,0.5-2.1c0-0.1,0-0.2,0-0.3
					c0,0,0-0.1-0.1-0.1c0,0-0.1,0-0.1-0.1c-0.1,0-0.1,0-0.3,0c0-0.1,0-0.1,0-0.1c0.5-0.1,0.8-0.1,1.3-0.2c0,0.1,0,0.1,0,0.1
					c-0.1,0-0.2,0.1-0.2,0.1c-0.1,0-0.1,0.1-0.2,0.2c0,0-0.1,0.1-0.1,0.3c-0.4,1.5-0.6,2.3-1,3.8c-0.1,0.4-0.2,0.7-0.4,0.9
					c-0.2,0.2-0.4,0.4-0.6,0.4c-0.2,0-0.3,0-0.4,0c-0.1-0.1-0.2-0.2-0.2-0.3c0-0.1,0-0.2,0.1-0.3c0.1-0.1,0.2-0.1,0.3-0.2
					c0.1,0,0.2,0,0.4,0c0.1,0,0.2,0,0.2,0c0.1,0,0.2-0.1,0.2-0.2c0.1-0.1,0.1-0.3,0.2-0.5c0.1-0.3,0.1-0.4,0.2-0.7
					c-0.8-1-1.1-1.4-2-2.4c-0.1-0.1-0.2-0.2-0.3-0.2c-0.1-0.1-0.2-0.1-0.2-0.1c-0.1,0-0.2,0-0.3,0C55.9,37.6,55.9,37.5,55.9,37.5z"
					/>
				<path class="st0" d="M65.8,39.5c0,0.1,0,0.1,0,0.1c-1,0.1-1.5,0.1-2.5,0.2c0-0.1,0-0.1,0-0.1c0.1,0,0.1,0,0.2,0
					c0.2,0,0.4-0.1,0.5-0.2c0.1-0.1,0.1-0.3,0-0.6c-0.1-1.4-0.2-2.1-0.3-3.4c0-0.3-0.1-0.4-0.1-0.5c0-0.1-0.1-0.1-0.2-0.1
					c-0.1-0.1-0.3-0.1-0.4-0.1c-0.1,0-0.1,0-0.2,0c0-0.1,0-0.1,0-0.1c1.1-0.1,1.6-0.2,2.7-0.2c0,0.1,0,0.1,0,0.1c-0.1,0-0.1,0-0.2,0
					c-0.3,0-0.4,0.1-0.5,0.2c-0.1,0.1-0.1,0.3-0.1,0.6c0.1,1.4,0.2,2.1,0.3,3.4c0,0.3,0.1,0.4,0.1,0.5c0,0.1,0.1,0.1,0.2,0.2
					c0.1,0.1,0.3,0.1,0.4,0.1C65.7,39.5,65.7,39.5,65.8,39.5z"/>
				<path class="st0" d="M68.8,35.8c0,0.5,0,0.7,0,1.2c-0.1,0-0.1,0-0.1,0c-0.1-0.4-0.3-0.6-0.5-0.8c-0.2-0.1-0.4-0.2-0.7-0.2
					c-0.2,0-0.4,0.1-0.5,0.2c-0.1,0.1-0.2,0.2-0.2,0.3c0,0.1,0.1,0.3,0.2,0.4c0.1,0.1,0.3,0.2,0.6,0.3c0.3,0.1,0.4,0.2,0.7,0.3
					c0.6,0.2,0.9,0.6,0.9,1c0,0.3-0.1,0.6-0.4,0.8c-0.3,0.2-0.6,0.3-0.9,0.3c-0.2,0-0.5,0-0.8-0.1c-0.1,0-0.2,0-0.2,0
					c-0.1,0-0.1,0-0.1,0.1c-0.1,0-0.1,0-0.1,0c0-0.5,0-0.8-0.1-1.3c0.1,0,0.1,0,0.1,0c0.1,0.4,0.3,0.6,0.5,0.8
					c0.2,0.2,0.5,0.3,0.8,0.2c0.2,0,0.4-0.1,0.5-0.2s0.2-0.2,0.2-0.4c0-0.2-0.1-0.3-0.2-0.5c-0.1-0.1-0.4-0.3-0.9-0.4
					c-0.4-0.2-0.7-0.3-0.9-0.5c-0.1-0.1-0.2-0.3-0.2-0.6c0-0.3,0.1-0.5,0.3-0.8c0.2-0.2,0.5-0.3,0.9-0.3c0.2,0,0.4,0,0.6,0.1
					c0.2,0,0.3,0.1,0.3,0.1s0.1,0,0.1,0c0,0,0.1-0.1,0.1-0.1C68.7,35.8,68.7,35.8,68.8,35.8z"/>
				<path class="st0" d="M71.2,33.9c0,1.9-0.1,2.9-0.1,4.8c0,0.2,0,0.4,0,0.5c0,0.1,0.1,0.1,0.2,0.2c0.1,0,0.2,0.1,0.4,0.1
					c0,0.1,0,0.1,0,0.1c-0.8,0-1.1,0-1.9,0c0-0.1,0-0.1,0-0.1c0.2,0,0.3,0,0.4-0.1c0.1,0,0.1-0.1,0.2-0.2c0-0.1,0.1-0.2,0.1-0.5
					c0-1.3,0-2,0-3.3c0-0.4,0-0.7,0-0.7c0-0.1-0.1-0.2-0.1-0.2c0,0-0.1-0.1-0.2-0.1c-0.1,0-0.2,0-0.3,0.1c0-0.1,0-0.1-0.1-0.1
					c0.5-0.2,0.8-0.3,1.3-0.4C71,33.9,71.1,33.9,71.2,33.9z"/>
				<path class="st0" d="M74.4,39.2c-0.4,0.3-0.7,0.4-0.8,0.4c-0.2,0.1-0.3,0.1-0.5,0.1c-0.3,0-0.5-0.1-0.7-0.3
					c-0.2-0.2-0.2-0.4-0.2-0.7c0-0.2,0.1-0.3,0.1-0.4c0.1-0.2,0.3-0.3,0.6-0.5c0.3-0.1,0.8-0.3,1.5-0.5c0-0.1,0-0.1,0-0.1
					c0-0.4,0-0.6-0.1-0.7c-0.1-0.1-0.3-0.2-0.6-0.2c-0.2,0-0.3,0-0.5,0.1c-0.1,0.1-0.2,0.2-0.2,0.3c0,0.1,0,0.1,0,0.2
					c0,0.1,0,0.2-0.1,0.3c-0.1,0.1-0.2,0.1-0.3,0.1c-0.1,0-0.2,0-0.3-0.1c-0.1-0.1-0.1-0.2-0.1-0.3c0-0.2,0.1-0.4,0.4-0.6
					c0.3-0.2,0.7-0.3,1.1-0.2c0.4,0,0.7,0.1,0.9,0.2c0.2,0.1,0.3,0.2,0.4,0.4c0,0.1,0,0.4,0,0.7c0,0.5-0.1,0.7-0.1,1.2
					c0,0.3,0,0.6,0,0.6c0,0.1,0,0.1,0.1,0.2c0,0,0.1,0,0.1,0c0,0,0.1,0,0.1,0c0.1,0,0.2-0.1,0.4-0.2c0,0.1,0,0.1,0,0.2
					c-0.4,0.4-0.7,0.5-1,0.5c-0.1,0-0.2-0.1-0.3-0.2C74.4,39.5,74.4,39.4,74.4,39.2z M74.4,38.9c0-0.5,0.1-0.8,0.1-1.4
					c-0.5,0.1-0.7,0.2-0.9,0.3c-0.2,0.1-0.4,0.2-0.5,0.3c-0.1,0.1-0.2,0.3-0.2,0.4c0,0.2,0,0.3,0.2,0.5c0.1,0.1,0.3,0.2,0.4,0.2
					C73.7,39.3,74,39.1,74.4,38.9z"/>
				<path class="st0" d="M77.5,37c0.5-0.4,1-0.6,1.5-0.6c0.2,0,0.4,0.1,0.6,0.2c0.1,0.1,0.3,0.3,0.3,0.5c0,0.2,0,0.4,0,0.7
					c-0.1,0.6-0.1,0.9-0.2,1.5c0,0.2,0,0.4,0,0.5c0,0.1,0.1,0.1,0.1,0.2c0.1,0,0.2,0.1,0.4,0.1c0,0.1,0,0.1,0,0.1
					c-0.8-0.1-1.1-0.2-1.9-0.3c0-0.1,0-0.1,0-0.1c0,0,0.1,0,0.1,0c0.2,0,0.3,0,0.4,0c0.1,0,0.1-0.1,0.2-0.2c0,0,0-0.2,0.1-0.4
					c0.1-0.6,0.1-0.9,0.2-1.5c0-0.3,0-0.6,0-0.7c-0.1-0.2-0.2-0.3-0.5-0.3c-0.4,0-0.7,0.1-1.1,0.4c-0.1,0.8-0.1,1.1-0.2,1.9
					c0,0.2,0,0.4,0,0.5c0,0.1,0.1,0.1,0.1,0.2c0.1,0,0.2,0.1,0.4,0.1c0,0.1,0,0.1,0,0.1c-0.8-0.1-1.1-0.1-1.9-0.2c0-0.1,0-0.1,0-0.1
					c0,0,0.1,0,0.1,0c0.2,0,0.3,0,0.4-0.1c0.1-0.1,0.1-0.3,0.2-0.5c0.1-0.5,0.1-0.8,0.1-1.3c0-0.4,0.1-0.7,0.1-0.8s0-0.2-0.1-0.2
					c0,0-0.1-0.1-0.2-0.1c-0.1,0-0.2,0-0.3,0c0-0.1,0-0.1-0.1-0.1c0.5-0.1,0.8-0.2,1.3-0.3c0.1,0,0.1,0,0.2,0
					C77.5,36.6,77.5,36.7,77.5,37z"/>
				<path class="st0" d="M83.1,40.6c-0.2,0.1-0.4,0.2-0.6,0.3c-0.2,0-0.4,0-0.6,0c-0.4-0.1-0.8-0.3-1-0.7c-0.3-0.4-0.3-0.8-0.3-1.3
					c0.1-0.5,0.4-0.9,0.8-1.3c0.4-0.4,1-0.5,1.5-0.3c0.4,0.1,0.6,0.2,0.8,0.5c0.1-0.3,0.1-0.4,0.1-0.6c0.1-0.4,0.1-0.6,0.1-0.7
					c0-0.1,0-0.2-0.1-0.2c0,0-0.1-0.1-0.2-0.1c-0.1,0-0.2,0-0.3,0c0-0.1,0-0.1,0-0.2c0.5-0.1,0.8-0.1,1.3-0.1c0.1,0,0.1,0,0.2,0
					c-0.4,1.6-0.6,2.4-1,4.1c-0.1,0.4-0.1,0.7-0.1,0.8c0,0.1,0,0.2,0.1,0.2c0,0,0.1,0.1,0.2,0.1c0.1,0,0.2,0,0.3,0
					c0,0.1,0,0.1,0,0.1c-0.5,0.1-0.7,0.1-1.2,0.2c-0.1,0-0.1,0-0.2,0C83.1,40.9,83.1,40.8,83.1,40.6z M83.2,40.3
					c0.2-0.7,0.2-1.1,0.4-1.8c0-0.2,0-0.3,0-0.5c-0.1-0.2-0.2-0.3-0.3-0.4c-0.1-0.1-0.3-0.2-0.4-0.2c-0.3-0.1-0.5,0-0.8,0.2
					c-0.3,0.2-0.5,0.6-0.6,1.1c-0.1,0.5,0,0.9,0.1,1.3c0.2,0.3,0.4,0.5,0.7,0.6C82.6,40.6,82.9,40.5,83.2,40.3z"/>
				<path class="st0" d="M93.2,38.5c-0.2,0.5-0.2,0.7-0.4,1.2c-0.1,0-0.1,0-0.2-0.1c0-0.2,0.1-0.4,0-0.5c0-0.2-0.1-0.3-0.2-0.5
					c-0.1-0.1-0.3-0.2-0.6-0.3c-0.3-0.1-0.5-0.2-0.8-0.3c-0.5,1.5-0.8,2.3-1.3,3.8c-0.1,0.3-0.1,0.5-0.1,0.6
					c0.1,0.1,0.2,0.2,0.4,0.3c0.1,0,0.1,0,0.2,0.1c0,0.1,0,0.1-0.1,0.1c-0.9-0.3-1.4-0.5-2.3-0.8c0-0.1,0-0.1,0-0.1
					c0.1,0,0.1,0,0.2,0.1c0.2,0.1,0.4,0.1,0.6,0c0.1-0.1,0.2-0.2,0.3-0.5c0.5-1.5,0.8-2.3,1.3-3.9c-0.3-0.1-0.4-0.1-0.7-0.2
					c-0.3-0.1-0.5-0.1-0.6-0.1c-0.2,0-0.3,0-0.5,0.2c-0.2,0.1-0.3,0.3-0.4,0.5c-0.1,0-0.1,0-0.2-0.1c0.2-0.5,0.3-0.7,0.4-1.2
					C90.3,37.4,91.3,37.8,93.2,38.5z"/>
				<path class="st0" d="M95.1,41.1c0.6,0.3,1,0.7,1.1,1.2c0.1,0.5,0.1,0.9-0.1,1.3c-0.1,0.3-0.4,0.5-0.7,0.8
					c-0.3,0.2-0.6,0.3-1,0.4c-0.3,0-0.7,0-1-0.2c-0.5-0.2-0.9-0.6-1.1-1.2c-0.1-0.4-0.1-0.9,0-1.3c0.1-0.3,0.3-0.6,0.6-0.8
					c0.3-0.2,0.6-0.4,1-0.4C94.5,40.9,94.8,40.9,95.1,41.1z M94.9,41.2c-0.1-0.1-0.3-0.1-0.5-0.1c-0.2,0-0.4,0.1-0.5,0.2
					c-0.2,0.2-0.3,0.4-0.4,0.7c-0.2,0.5-0.3,0.9-0.2,1.4c0.1,0.4,0.3,0.7,0.6,0.9c0.3,0.1,0.5,0.1,0.8,0c0.3-0.1,0.5-0.4,0.7-0.9
					c0.3-0.6,0.3-1.1,0.2-1.6C95.4,41.6,95.2,41.4,94.9,41.2z"/>
				<path class="st0" d="M100.8,44c-0.4,0.8-0.6,1.1-1.1,1.9c-0.2,0.4-0.3,0.6-0.3,0.7s0,0.2,0,0.2c0,0.1,0.1,0.1,0.1,0.1
					c0.1,0,0.2,0.1,0.3,0.1c0,0.1,0,0.1,0,0.2C99.3,47.1,99,47,98.5,47c-0.1,0-0.1-0.1-0.2-0.1c0.1-0.3,0.2-0.4,0.4-0.7
					c-0.5,0.1-0.8,0.2-1,0.2c-0.2,0-0.4-0.1-0.6-0.1c-0.2-0.1-0.3-0.2-0.4-0.4c-0.1-0.2-0.1-0.4-0.1-0.6s0.1-0.4,0.3-0.7
					c0.3-0.6,0.4-0.9,0.7-1.4c0.1-0.2,0.1-0.3,0.1-0.3c0-0.1,0-0.2-0.1-0.2c-0.1-0.1-0.2-0.2-0.4-0.2c0-0.1,0-0.1,0.1-0.1
					c0.5,0.3,0.8,0.4,1.3,0.7c-0.4,0.9-0.7,1.3-1.1,2.1c-0.2,0.3-0.2,0.5-0.1,0.7c0.1,0.2,0.2,0.3,0.3,0.4c0.1,0.1,0.3,0.1,0.4,0.1
					c0.2,0,0.4,0,0.7-0.1c0.4-0.7,0.6-1.1,1-1.8c0.1-0.2,0.1-0.3,0.1-0.4c0-0.1-0.2-0.2-0.4-0.4c0-0.1,0-0.1,0.1-0.1
					C100,43.6,100.3,43.7,100.8,44z"/>
				<path class="st0" d="M102.8,45.1c-0.2,0.3-0.3,0.4-0.4,0.7c0.6-0.3,1-0.3,1.4-0.1c0.1,0.1,0.2,0.2,0.3,0.3c0,0.1,0,0.2,0,0.3
					c-0.1,0.1-0.1,0.1-0.2,0.2c-0.1,0-0.2,0-0.3-0.1c-0.1-0.1-0.2-0.2-0.2-0.3s-0.1-0.2-0.2-0.3c0,0-0.1,0-0.2,0
					c-0.2,0-0.4,0.1-0.6,0.2c-0.4,0.6-0.5,0.9-0.9,1.5c-0.1,0.2-0.2,0.3-0.2,0.4c0,0.1,0,0.2,0.1,0.3c0.1,0.1,0.2,0.2,0.3,0.3
					c0,0,0,0.1-0.1,0.1c-0.7-0.4-1.1-0.7-1.8-1.1c0,0,0-0.1,0.1-0.1c0.2,0.1,0.3,0.2,0.4,0.2c0.1,0,0.2,0,0.2-0.1
					c0,0,0.1-0.1,0.2-0.3c0.3-0.5,0.4-0.7,0.7-1.2c0.2-0.4,0.3-0.6,0.4-0.7c0-0.1,0-0.1,0-0.2c0-0.1-0.1-0.1-0.1-0.1
					c-0.1,0-0.2-0.1-0.3-0.1c0-0.1,0-0.1,0-0.1c0.5,0.1,0.8,0.2,1.3,0.3C102.7,45,102.7,45,102.8,45.1z"/>
				<path class="st0" d="M106.8,47.7c-0.3,0.4-0.4,0.6-0.7,1c0,0-0.1-0.1-0.1-0.1c0.1-0.4,0.2-0.7,0.1-0.9s-0.2-0.4-0.5-0.6
					c-0.2-0.1-0.4-0.2-0.5-0.2c-0.2,0-0.3,0.1-0.3,0.2c-0.1,0.1-0.1,0.3-0.1,0.4c0,0.1,0.1,0.3,0.3,0.6c0.2,0.2,0.2,0.4,0.4,0.6
					c0.4,0.6,0.4,1,0.2,1.4c-0.2,0.3-0.5,0.4-0.8,0.4c-0.3,0-0.7-0.1-0.9-0.3c-0.2-0.1-0.4-0.3-0.6-0.6c-0.1-0.1-0.1-0.1-0.2-0.2
					c-0.1,0-0.1,0-0.2,0c0,0-0.1,0-0.1-0.1c0.3-0.4,0.4-0.6,0.7-1.1c0,0,0.1,0,0.1,0.1c-0.1,0.4-0.1,0.7-0.1,1
					c0.1,0.3,0.3,0.5,0.5,0.7c0.2,0.1,0.3,0.2,0.5,0.2c0.2,0,0.3-0.1,0.4-0.2c0.1-0.1,0.1-0.3,0.1-0.5c0-0.2-0.2-0.5-0.5-0.9
					c-0.3-0.4-0.4-0.7-0.4-0.9c0-0.2,0-0.4,0.1-0.6c0.2-0.2,0.4-0.4,0.7-0.4c0.3,0,0.6,0.1,0.9,0.3c0.1,0.1,0.3,0.2,0.5,0.4
					c0.1,0.1,0.2,0.2,0.2,0.2c0,0,0.1,0,0.1,0c0,0,0.1,0,0.2,0C106.7,47.6,106.7,47.6,106.8,47.7z"/>
			</g>
		</g>
	</g>
	<g>
		<path class="st6" d="M77.9,45.3l0.3,4.1c19.8,3.3,35.7,18.1,40.6,37.3l4.1-0.2C117.8,65.1,100,48.6,77.9,45.3z"/>
		<path class="st6" d="M60.6,45.5c-21.4,3.7-38.6,20-43.6,41l4.1,0.2C25.8,68,41.1,53.4,60.3,49.6L60.6,45.5z"/>
	</g>
	<path class="st6" d="M118.4,110.6c-5.5,21.8-25.4,38-48.9,38c-23.5,0-43.4-16.2-48.9-38.1l-4.1,0.2c5.7,24,27.3,41.8,53,41.8
		c25.7,0,47.2-17.9,52.9-41.8L118.4,110.6z"/>
	<g>
		<path class="st7" d="M62.3,134.4c2.6,0.5,5.1,0.8,7.7,0.8c2.6,0,5.2-0.3,7.7-0.8l-7.7,39L62.3,134.4z"/>
		<path class="st0" d="M77.1,135.1L70,170.8l-7.1-35.8c2.3,0.4,4.7,0.7,7.1,0.7S74.7,135.5,77.1,135.1 M78.4,133.8
			c-2.7,0.6-5.5,1-8.4,1s-5.7-0.3-8.4-1L70,176L78.4,133.8L78.4,133.8z"/>
	</g>
	<g>
		<path class="st0" d="M70,134.7C70,134.7,70,134.7,70,134.7l-0.1,40.8L70,176l8.4-42.2C75.7,134.4,72.9,134.7,70,134.7z"/>
	</g>
</g>
<g>
</g>
<g>
</g>
<g>
</g>
<g>
</g>
<g>
</g>
<g>
</g>
</svg>
