<?xml version="1.0" encoding="utf-8"?>
<!-- Generator: Adobe Illustrator 19.0.1, SVG Export Plug-In . SVG Version: 6.00 Build 0)  -->
<svg version="1.1" id="Layer_1" xmlns="http://www.w3.org/2000/svg" xmlns:xlink="http://www.w3.org/1999/xlink" x="0px" y="0px"
	 viewBox="-273 388.2 64 17.3" style="enable-background:new -273 388.2 64 17.3;" xml:space="preserve">
<style type="text/css">
	.st0{fill:#5E7C76;}
	.st1{fill:#9AADAA;}
	.st2{fill:#98A8A5;}
</style>
<path class="st0" d="M-223.8,393.2h-3.4c-0.2,0-0.4,0.2-0.5,0.4l-1.4,8.8c0,0.2,0.1,0.3,0.3,0.3h1.8c0.2,0,0.3-0.1,0.3-0.3l0.4-2.5
	c0-0.2,0.2-0.4,0.5-0.4h1.1c2.3,0,3.6-1.1,3.9-3.3c0.2-0.9,0-1.7-0.4-2.2C-221.8,393.5-222.7,393.2-223.8,393.2 M-223.4,396.5
	c-0.2,1.2-1.1,1.2-2,1.2h-0.6l0.4-2.3c0-0.1,0.1-0.2,0.3-0.2h0.2c0.6,0,1.2,0,1.5,0.4C-223.4,395.7-223.4,396-223.4,396.5"/>
<g>
	<path class="st1" d="M-248.3,393.2h-3.4c-0.2,0-0.4,0.2-0.5,0.4l-1.4,8.8c0,0.2,0.1,0.3,0.3,0.3h1.6c0.2,0,0.4-0.2,0.5-0.4l0.4-2.4
		c0-0.2,0.2-0.4,0.5-0.4h1.1c2.3,0,3.6-1.1,3.9-3.3c0.2-0.9,0-1.7-0.4-2.2C-246.3,393.5-247.1,393.2-248.3,393.2 M-247.9,396.5
		c-0.2,1.2-1.1,1.2-2,1.2h-0.5l0.4-2.3c0-0.1,0.1-0.2,0.3-0.2h0.2c0.6,0,1.2,0,1.5,0.4C-247.9,395.7-247.8,396-247.9,396.5"/>
</g>
<g>
	<path class="st1" d="M-238,396.4h-1.6c-0.1,0-0.3,0.1-0.3,0.2l-0.1,0.5l-0.1-0.2c-0.4-0.5-1.1-0.7-1.9-0.7c-1.8,0-3.4,1.4-3.7,3.3
		c-0.2,1,0.1,1.9,0.6,2.5s1.2,0.8,2.1,0.8c1.5,0,2.3-0.9,2.3-0.9l-0.1,0.5c0,0.2,0.1,0.3,0.3,0.3h1.5c0.2,0,0.4-0.2,0.5-0.4l0.9-5.6
		C-237.7,396.6-237.9,396.4-238,396.4 M-240.3,399.6c-0.2,0.9-0.9,1.6-1.9,1.6c-0.5,0-0.9-0.2-1.1-0.4c-0.2-0.3-0.3-0.7-0.3-1.2
		c0.1-0.9,0.9-1.6,1.8-1.6c0.5,0,0.8,0.2,1.1,0.4C-240.4,398.7-240.3,399.2-240.3,399.6"/>
</g>
<path class="st0" d="M-213.6,396.4h-1.6c-0.1,0-0.3,0.1-0.3,0.2l-0.1,0.5l-0.1-0.2c-0.4-0.5-1.1-0.7-1.9-0.7c-1.8,0-3.4,1.4-3.7,3.3
	c-0.2,1,0.1,1.9,0.6,2.5s1.2,0.8,2.1,0.8c1.5,0,2.3-0.9,2.3-0.9l-0.1,0.5c0,0.2,0.1,0.3,0.3,0.3h1.5c0.2,0,0.4-0.2,0.5-0.4l0.9-5.6
	C-213.3,396.6-213.4,396.4-213.6,396.4 M-215.9,399.6c-0.2,0.9-0.9,1.6-1.9,1.6c-0.5,0-0.9-0.2-1.1-0.4c-0.2-0.3-0.3-0.7-0.3-1.2
	c0.1-0.9,0.9-1.6,1.8-1.6c0.5,0,0.8,0.2,1.1,0.4C-215.9,398.7-215.8,399.2-215.9,399.6"/>
<g>
	<path class="st1" d="M-229.3,396.4h-1.7c-0.2,0-0.3,0.1-0.4,0.2l-2.2,3.4l-1-3.2c-0.1-0.2-0.2-0.3-0.5-0.3h-1.6
		c-0.2,0-0.3,0.2-0.3,0.4l1.8,5.3l-1.7,2.4c-0.1,0.2,0,0.5,0.2,0.5h1.6c0.2,0,0.3-0.1,0.4-0.2l5.5-7.9
		C-228.9,396.7-229.1,396.4-229.3,396.4"/>
</g>
<g>
	<path class="st0" d="M-211.7,393.5l-1.4,9c0,0.2,0.1,0.3,0.3,0.3h1.4c0.2,0,0.4-0.2,0.5-0.4l1.4-8.8c0-0.2-0.1-0.3-0.3-0.3h-1.6
		C-211.5,393.2-211.6,393.3-211.7,393.5"/>
</g>
<g>
	<path class="st1" d="M-261,390.2c-0.7-0.8-2-1.2-3.8-1.2h-5c-0.3,0-0.6,0.3-0.7,0.6l-2,13.1c0,0.3,0.2,0.5,0.4,0.5h3.1l0.8-4.9v0.2
		c0.1-0.3,0.4-0.6,0.7-0.6h1.5c2.9,0,5.1-1.2,5.8-4.5c0-0.1,0-0.2,0-0.3c-0.1,0-0.1,0,0,0C-260.1,391.8-260.3,391-261,390.2"/>
</g>
<g>
	<path class="st0" d="M-260.3,393.1L-260.3,393.1c0,0.1,0,0.2,0,0.3c-0.7,3.4-2.9,4.5-5.8,4.5h-1.5c-0.3,0-0.6,0.3-0.7,0.6l-1,6.1
		c0,0.2,0.1,0.4,0.4,0.4h2.6c0.3,0,0.6-0.2,0.6-0.5v-0.1l0.5-3.1V401c0-0.3,0.3-0.5,0.6-0.5h0.4c2.5,0,4.5-1,5-4
		c0.2-1.2,0.1-2.3-0.5-3C-259.8,393.4-260,393.2-260.3,393.1"/>
</g>
<g>
	<path class="st2" d="M-261,392.8c-0.1,0-0.2-0.1-0.3-0.1c-0.1,0-0.2,0-0.3-0.1c-0.4-0.1-0.8-0.1-1.3-0.1h-3.9c-0.1,0-0.2,0-0.3,0.1
		c-0.2,0.1-0.3,0.3-0.3,0.5l-0.8,5.2v0.2c0.1-0.3,0.4-0.6,0.7-0.6h1.5c2.9,0,5.1-1.2,5.8-4.5c0-0.1,0-0.2,0.1-0.3
		c-0.2-0.1-0.3-0.2-0.5-0.2C-260.9,392.8-260.9,392.8-261,392.8"/>
</g>
</svg>
