<?xml version="1.0" encoding="utf-8"?>
<!-- Generator: Adobe Illustrator 19.0.1, SVG Export Plug-In . SVG Version: 6.00 Build 0)  -->
<svg version="1.1" id="waves" xmlns="http://www.w3.org/2000/svg" xmlns:xlink="http://www.w3.org/1999/xlink" x="0px" y="0px"
	 viewBox="0 363.8 612 66.2" style="enable-background:new 0 363.8 612 66.2;" xml:space="preserve">
<style type="text/css">
	.st0{fill:#05668D;}
</style>
<g id="Layer_2">
	<rect x="-5.1" y="405.8" class="st0" width="622.2" height="24.3"/>
</g>
<g id="Layer_1_1_">
	<g>
		<path class="st0" d="M-5.1,425.8c0-13.9,0-27.9,0-41.8c1.4,0.4,2.8,0.8,4.2,1.3c5.1,1.7,10.3,2.7,15.6,3.1
			c5.5,0.5,11.1-0.3,16.5-1.5c6.5-1.5,12.7-3.8,18.7-6.4c8.9-3.9,17.6-8.3,26.8-11.6c5.6-2,11.4-3.4,17.3-3.9c6-0.5,12,0,18,1.4
			c6.4,1.5,12.6,3.8,18.6,6.4c9.7,4.3,19.2,9.2,29.4,12.5c5.4,1.8,11,2.8,16.8,3.2c5.2,0.3,10.4-0.4,15.5-1.6
			c4.7-1.1,9.3-2.6,13.8-4.4c9.6-3.8,18.7-8.7,28.4-12.4c6.5-2.5,13.1-4.3,20-5.1c6.9-0.7,13.8,0,20.5,1.9c7,1.9,13.8,4.7,20.4,7.7
			c9.4,4.3,18.7,9,28.8,11.7c4.3,1.1,8.7,1.9,13.2,2.2c5.3,0.4,10.5-0.4,15.7-1.6c5.6-1.2,10.9-3.2,16.1-5.3
			c8.9-3.7,17.5-8.2,26.6-11.7c6.4-2.5,12.9-4.3,19.7-4.9c6.8-0.7,13.7,0.1,20.3,1.9c7.1,1.9,13.9,4.7,20.5,7.7
			c9.5,4.4,18.9,9.1,29.1,11.7c4.4,1.1,8.8,1.9,13.4,2.1c3.7,0.2,7.4-0.2,11.1-0.8c7.7-1.2,15-3.9,22.1-7c10-4.3,19.6-9.4,30-12.7
			c4.7-1.5,9.6-2.6,14.5-3c5-0.5,10-0.2,15,0.8c8.4,1.6,16.3,4.7,24.1,8.1c1.4,0.6,1.8,1.5,1.8,3c0,12.4,0,24.9,0,37.3
			c0,0.3,0,0.6,0,1c0,0.8-0.3,1.2-1.2,0.8c-3-1.5-6.1-2.7-9.2-3.9c-5.7-2.3-11.5-4.1-17.5-4.9c-6.1-0.8-12.2-0.7-18.4,0.4
			c-6.3,1.2-12.2,3.2-18,5.5c-9.7,3.9-18.9,8.8-28.7,12.5c-4.8,1.8-9.7,3.4-14.8,4c-6.6,0.8-13.2,0.9-19.8-0.5
			c-5.2-1-10.1-2.6-15-4.5c-10.5-4.1-20.5-9.6-31.1-13.4c-5-1.8-10-3.4-15.3-4c-6-0.8-12.1-0.7-18.2,0.4c-6.3,1.1-12.2,3.2-18,5.5
			c-9.7,3.9-18.9,8.9-28.7,12.5c-4.9,1.8-9.8,3.4-14.9,4c-6.5,0.8-13,0.8-19.5-0.4c-6.1-1.1-11.9-3.2-17.5-5.5
			c-8.8-3.6-17.3-8-26.1-11.5c-5.7-2.2-11.5-4.1-17.5-4.9c-6.1-0.8-12.2-0.8-18.4,0.4c-6.2,1.1-12.1,3-17.9,5.5
			c-8.1,3.4-16.1,7.2-24.2,10.7c-6.3,2.7-12.8,4.9-19.6,5.8c-6.4,0.8-12.9,0.8-19.3-0.4c-6.1-1.2-12-3.1-17.7-5.5
			c-9.6-4-18.9-8.8-28.7-12.5c-5-1.8-10-3.4-15.3-4c-6-0.8-12.1-0.7-18.2,0.4c-6.2,1.2-12.1,3.1-17.9,5.4c-9.8,3.9-19,8.8-28.8,12.4
			c-5.3,2-10.7,3.5-16.4,4.2c-4.2,0.6-8.5,0.3-12.8,0.2c-3.1-0.1-6.2-0.9-9.2-1.6C0.7,427.6-2.1,426.2-5.1,425.8z"/>
	</g>
</g>
</svg>
